<?xml version="1.0" encoding="UTF-8" standalone="no"?>
<svg
   xmlns:dc="http://purl.org/dc/elements/1.1/"
   xmlns:cc="http://creativecommons.org/ns#"
   xmlns:rdf="http://www.w3.org/1999/02/22-rdf-syntax-ns#"
   xmlns:svg="http://www.w3.org/2000/svg"
   xmlns="http://www.w3.org/2000/svg"
   id="svg861"
   version="1.1"
   viewBox="0 0 200 600"
   height="600mm"
   width="200mm">
  <defs
     id="defs855" />
  <metadata
     id="metadata858">
    <rdf:RDF>
      <cc:Work
         rdf:about="">
        <dc:format>image/svg+xml</dc:format>
        <dc:type
           rdf:resource="http://purl.org/dc/dcmitype/StillImage" />
        <dc:title></dc:title>
      </cc:Work>
    </rdf:RDF>
  </metadata>
  <g
     transform="translate(0,303)"
     id="layer1">
    <path
       id="path863"
       d="m 104.8837,-242.32432 a 40.476189,40.476189 0 0 0 -40.476225,40.47623 40.476189,40.476189 0 0 0 40.476225,40.47623 40.476189,40.476189 0 0 0 40.39005,-38.75771 h 41.11796 v 136.263612 h 6.52766 v -136.263612 -6.52739 h -6.52766 -41.36951 a 40.476189,40.476189 0 0 0 -40.1385,-35.66736 z"
       style="fill:#ff7675;fill-opacity:1;fill-rule:evenodd;stroke-width:0.14495075" />
    <rect
       y="13.625578"
       x="36.120853"
       height="5.2916665"
       width="46.869045"
       id="rect4555"
       style="fill:#1a4364;fill-opacity:1;fill-rule:evenodd;stroke-width:0.26458332" />
    <rect
       y="38.024994"
       x="6.1945362"
       height="5.2916665"
       width="46.869045"
       id="rect4555-2"
       style="fill:#1a4364;fill-opacity:1;fill-rule:evenodd;stroke-width:0.26458332" />
    <rect
       y="25.539312"
       x="21.947702"
       height="5.2916665"
       width="46.869045"
       id="rect4555-7"
       style="fill:#1a4364;fill-opacity:1;fill-rule:evenodd;stroke-width:0.26458332" />
    <path
       transform="matrix(0.02349712,0.91176037,-0.91176037,0.02349712,-120.12104,-284.64424)"
       d="m 103.8833,-142.20831 -40.515012,-24.79888 -40.515009,-24.79888 41.733965,-22.68759 41.733966,-22.68759 -1.21896,47.48647 z"
       id="path4580"
       style="fill:#00cec9;fill-opacity:1;fill-rule:evenodd;stroke-width:0.22639704" />
    <path
       id="rect5128"
       d="m 129.93046,-129.36006 v 62.366204 H 69.075781 a 25.6,24.999999 0 0 0 -22.402766,-12.958365 25.6,24.999999 0 0 0 -25.599988,25.000029 25.6,24.999999 0 0 0 25.599988,25.000002 25.6,24.999999 0 0 0 25.599988,-25.000002 25.6,24.999999 0 0 0 -1.339972,-7.884292 h 58.997429 v 80.887066 h 4.15737 v -80.887066 h 13.9852 v -4.157372 h -13.9852 v -62.366204 z"
       style="fill:#00cec9;fill-opacity:1;fill-rule:evenodd;stroke-width:0.26458332" />
    <rect
       y="35.059517"
       x="143.91544"
       height="81.264877"
       width="27.970238"
       id="rect5137"
       style="fill:#00cec9;fill-opacity:1;fill-rule:evenodd;stroke-width:0.26458332" />
    <circle
       r="7.3705359"
       cy="-95.15329"
       cx="184.92584"
       id="path5139"
       style="fill:#1a4364;fill-opacity:1;fill-rule:evenodd;stroke-width:0.26458332" />
    <circle
       r="7.3705359"
       cy="-119.06565"
       cx="173.08513"
       id="path5139-1"
       style="fill:#ff7675;fill-opacity:1;fill-rule:evenodd;stroke-width:0.26458332" />
    <circle
       r="7.3705359"
       cy="-95.365196"
       cx="161.30235"
       id="path5139-7"
       style="fill:#1a4364;fill-opacity:1;fill-rule:evenodd;stroke-width:0.26458332" />
    <path
       transform="matrix(2.6659548,-1.188394,1.188394,2.6659548,-198.86205,-211.60881)"
       d="m 51.026785,162.81847 -17.777962,-7.87875 -17.777962,-7.87874 15.712175,-11.4568 15.712174,-11.45679 2.065788,19.33554 z"
       id="path5166"
       style="fill:#00cec9;fill-opacity:1;fill-rule:evenodd;stroke-width:0.26458332" />
    <path
       transform="rotate(-12.785101,4.1576437,-68.89891)"
       d="m 130.77976,-79.898215 -8.92189,14.696284 -8.4669,14.96304 -16.734013,-3.943821 -16.847112,-3.428667 -1.420298,-17.133701 -1.945188,-17.082072 15.856222,-6.645388 15.644919,-7.12863 11.21998,13.026621 z"
       id="path5170"
       style="fill:#1a4364;fill-opacity:1;fill-rule:evenodd;stroke-width:0.16699976" />
    <rect
       y="-243.50893"
       x="13.135674"
       height="6.4255953"
       width="72.193451"
       id="rect5172"
       style="fill:#ff7675;fill-opacity:1;fill-rule:evenodd;stroke-width:0.26458332" />
    <rect
       y="-243.50893"
       x="13.135674"
       height="139.98038"
       width="9.5663948"
       id="rect5177"
       style="fill:#ff7675;fill-opacity:1;fill-rule:evenodd;stroke-width:0.12726018" />
    <g
       id="svgg"
       transform="matrix(0.60627558,0,0,0.60627558,43.428893,-88.577144)">
      <path
         style="fill:#ff7675;fill-opacity:1;fill-rule:evenodd;stroke:none"
         d="m 211.527,42.128 0.078,11.055 -2.103,-1.244 c -12.088,-7.147 -27.12,-11.47 -41.307,-11.881 l -3.009,-0.087 -0.143,66.131 -0.143,66.131 -5.628,-9.764 -5.628,-9.765 -3.94,6.814 c -18.379,31.786 -33.945,58.818 -33.945,58.948 0,0.087 11.089,0.159 24.642,0.159 h 24.642 v 9.894 c 0,8.567 0.058,9.917 0.433,10.061 1.678,0.644 15.536,-1.173 22.057,-2.892 62.486,-16.471 90.819,-94.498 55.048,-151.599 l -2.502,-3.994 0.609,-1.008 c 12.298,-20.33 -1.923,-46.015 -26.471,-47.811 l -2.769,-0.202 0.079,11.054 M 68.231,78.793 c -12.47,21.6 -22.672,39.334 -22.672,39.409 0,0.075 6.06,0.136 13.467,0.136 7.407,0 13.467,0.086 13.467,0.192 0,0.105 -1.386,2.581 -3.08,5.503 -1.695,2.921 -3.124,5.415 -3.177,5.542 -0.054,0.128 8.747,0.227 19.556,0.22 10.808,-0.006 19.652,-0.119 19.652,-0.251 0,-0.132 -1.413,-2.675 -3.141,-5.651 l -3.14,-5.412 18.599,-0.143 18.599,-0.143 -9.106,-15.759 C 122.247,93.768 112.05,76.103 104.596,63.181 97.141,50.258 91.011,39.648 90.973,39.602 90.935,39.557 80.701,57.192 68.231,78.793 M 171.807,40.695 c 12.986,1.034 26.548,5.258 37.591,11.707 l 2.063,1.205 v 20.618 20.617 l 1.648,-0.001 c 9.124,-0.006 19.611,-5.278 25.503,-12.821 l 1.175,-1.504 2.165,3.417 c 14.039,22.16 19.094,49.729 13.901,75.809 -8.746,43.918 -44.332,76.19 -86.297,78.26 l -3.94,0.194 v -9.783 -9.783 l 12.999,-0.074 13,-0.075 -12.994,-22.492 -12.994,-22.493 -0.006,-66.548 -0.005,-66.547 h 1.248 c 0.686,0 2.91,0.132 4.943,0.294 m -58.765,38.102 c 11.951,20.723 21.915,37.97 22.142,38.325 l 0.415,0.647 -18.396,-0.073 L 98.807,117.622 85.758,95.129 C 78.581,82.758 72.703,72.506 72.696,72.348 72.686,72.116 88.919,43.743 90.458,41.302 c 0.558,-0.885 -1.923,-5.004 22.584,37.495 m -33.863,5.661 c 3.572,6.187 6.494,11.289 6.494,11.339 0,0.05 -2.823,4.981 -6.274,10.958 l -6.275,10.867 -13.378,0.074 c -7.357,0.041 -13.334,-0.033 -13.281,-0.165 0.55,-1.363 25.875,-44.724 26.022,-44.553 0.109,0.127 3.12,5.293 6.692,11.48 m -13.943,46.82 c -0.396,0.684 -2.267,3.919 -4.157,7.189 l -3.438,5.946 h 8.286 c 4.557,0 8.285,-0.065 8.285,-0.144 0,-0.155 -7.311,-12.846 -7.897,-13.707 -0.329,-0.483 -0.418,-0.424 -1.079,0.716 m 36.571,6.032 -4.026,6.959 8.03,0.077 c 4.416,0.041 8.079,0.026 8.14,-0.035 0.125,-0.125 -7.257,-13.018 -7.781,-13.591 -0.266,-0.29 -1.194,1.112 -4.363,6.59 m -33.465,74.08 c -9.604,16.508 -18.111,31.11 -18.905,32.45 l -1.443,2.435 -0.143,-9.066 -0.143,-9.066 -8.596,4.979 c -4.728,2.738 -8.693,4.98 -8.811,4.983 -0.118,0.002 -0.215,-4.523 -0.215,-10.055 0,-8.723 -0.056,-10.038 -0.42,-9.898 -0.541,0.207 -17.417,9.92 -17.707,10.19 -0.12,0.112 4.006,2.627 9.169,5.589 5.163,2.962 13.224,7.59 17.912,10.285 l 8.524,4.9 v 24.11 24.111 l -2.139,0.181 c -32.436,2.742 -47.378,40.36 -24.946,62.807 6.388,6.393 17.355,11.595 24.444,11.595 0.468,0 1.253,0.08 1.745,0.179 l 0.894,0.178 0.073,35.113 0.073,35.113 3.725,-0.062 c 9.058,-0.152 21.485,-2.269 29.686,-5.059 l 1.954,-0.664 0.549,0.91 c 3.321,5.508 13.635,23.645 13.635,23.976 0,0.238 -11.709,20.717 -26.021,45.508 -14.312,24.791 -25.966,45.131 -25.897,45.2 0.069,0.068 40.361,0.092 89.538,0.052 l 89.412,-0.072 -30.779,-53.295 c -16.928,-29.312 -30.73,-53.488 -30.67,-53.725 0.06,-0.236 8.637,-15.048 19.062,-32.915 l 18.953,-32.485 -40.139,-69.377 C 138.639,272.337 112.82,227.682 103.34,211.26 93.86,194.839 86.036,181.397 85.953,181.389 85.871,181.382 77.946,194.882 68.342,211.39 M 41.834,210 c 0,2.695 0.081,4.9 0.18,4.9 0.142,0 8.012,-4.46 8.359,-4.737 0.048,-0.038 -1.37,-0.907 -3.152,-1.93 -1.781,-1.024 -3.722,-2.147 -4.313,-2.497 l -1.074,-0.635 V 210 m 6.59,38.601 c 0,0.237 -0.129,0.35 -0.286,0.253 -0.158,-0.098 -0.287,-0.371 -0.287,-0.607 0,-0.236 0.129,-0.35 0.287,-0.253 0.157,0.098 0.286,0.371 0.286,0.607 m 42.837,74.217 c 23.324,40.443 42.518,73.764 42.655,74.045 0.194,0.4 -0.286,1.232 -2.177,3.775 -11.65,15.666 -26.689,27.089 -45.118,34.271 l -2.906,1.132 -17.266,-29.84 C 56.952,389.789 48.947,376.019 48.66,375.6 c -0.763,-1.11 -0.729,-3.394 0.051,-3.394 0.57,0 0.573,-0.191 0.573,-37.392 0,-37.202 -0.003,-37.393 -0.573,-37.393 -0.569,0 -0.573,-0.191 -0.573,-24.069 0,-19.064 0.074,-24.068 0.358,-24.068 0.197,0 19.441,33.091 42.765,73.534 M 58.596,249.891 c 66.24,6.589 108.057,70.378 84.916,129.532 -2.538,6.485 -8.535,17.56 -9.167,16.927 -0.277,-0.276 -84.775,-146.779 -84.775,-146.981 0,-0.154 5.34,0.155 9.026,0.522 m 6.88,156.413 c 9.255,15.995 16.94,29.205 17.079,29.355 0.493,0.531 0.227,0.714 -2.111,1.453 -8.602,2.721 -18.391,4.425 -28.08,4.888 l -4.226,0.202 v -32.763 c 0,-19.261 0.105,-32.651 0.256,-32.491 0.141,0.15 7.828,13.36 17.082,29.356 m 83.255,17.12 c 7.619,13.198 15.804,27.37 18.19,31.491 l 4.338,7.494 -22.867,22.867 c -12.577,12.576 -22.918,22.807 -22.98,22.735 -0.415,-0.484 -26.651,-46.038 -26.652,-46.278 -0.002,-0.391 35.712,-62.295 35.943,-62.301 0.097,-0.003 6.41,10.794 14.028,23.992 m -16.326,-22.206 c -0.484,0.827 -8.385,14.495 -17.558,30.372 -9.173,15.878 -16.749,28.868 -16.837,28.868 -0.121,0 -11.866,-20.045 -13.683,-23.353 -0.332,-0.603 -0.217,-0.676 3.151,-2 17.466,-6.862 33.677,-19.153 44.13,-33.457 1.694,-2.319 1.997,-2.482 0.797,-0.43 m -31.487,66.261 c 1.185,2.048 9.697,16.747 18.914,32.664 9.218,15.917 17.468,30.165 18.333,31.662 0.865,1.497 3.721,6.423 6.346,10.946 2.625,4.523 4.773,8.359 4.773,8.524 0,0.209 -15.614,0.301 -51.146,0.301 -28.131,0 -51.147,-0.109 -51.147,-0.241 0,-0.179 41.889,-72.918 49.915,-86.675 1.331,-2.283 0.877,-2.602 4.012,2.819 m 74.392,1.977 3.289,5.668 -22.752,22.754 c -12.513,12.514 -22.859,22.717 -22.99,22.673 -0.132,-0.044 -1.723,-2.643 -3.537,-5.775 l -3.298,-5.696 22.733,-22.735 c 12.504,-12.504 22.854,-22.695 23,-22.646 0.146,0.048 1.746,2.639 3.555,5.757 m 7.114,12.28 3.198,5.513 -22.818,22.844 c -12.55,12.565 -22.907,22.751 -23.017,22.637 -0.311,-0.326 -6.263,-10.685 -6.263,-10.902 0,-0.222 45.34,-45.612 45.558,-45.608 0.08,0.002 1.583,2.484 3.342,5.516 m 14.394,24.942 10.372,17.997 -7.606,13.183 c -4.184,7.251 -7.607,13.207 -7.607,13.236 0,0.029 6.834,0.018 15.186,-0.024 10.156,-0.052 15.187,0.02 15.187,0.214 0,0.197 -11.722,0.292 -35.81,0.292 h -35.81 l -0.421,-0.645 c -0.231,-0.354 -2.552,-4.319 -5.156,-8.811 l -4.736,-8.166 22.835,-22.844 c 12.56,-12.564 22.917,-22.751 23.015,-22.636 0.098,0.114 4.846,8.306 10.551,18.204"
         id="path0" />
      <path
         d="m 257.66,136.963 c 0,0.551 0.059,0.777 0.131,0.501 0.072,-0.276 0.072,-0.727 0,-1.003 -0.072,-0.275 -0.131,-0.05 -0.131,0.502 m 0,4.584 c 0,0.552 0.059,0.777 0.131,0.502 0.072,-0.276 0.072,-0.727 0,-1.003 -0.072,-0.276 -0.131,-0.05 -0.131,0.501 m -195.823,3.08 c 2.413,0.048 6.281,0.048 8.596,0 2.315,-0.048 0.341,-0.088 -4.387,-0.087 -4.728,0 -6.622,0.039 -4.209,0.087 m 40.258,0 c 2.334,0.048 6.073,0.048 8.309,0 2.236,-0.049 0.327,-0.088 -4.244,-0.088 -4.57,0 -6.399,0.04 -4.065,0.088 m -3.313,36.664 c 0.355,0.068 0.935,0.068 1.29,0 0.354,-0.068 0.064,-0.124 -0.645,-0.124 -0.709,0 -0.999,0.056 -0.645,0.124 m 5.158,0.008 c 0.67,0.06 1.766,0.06 2.435,0 0.67,-0.061 0.122,-0.11 -1.217,-0.11 -1.34,0 -1.888,0.049 -1.218,0.11 m 8.596,-0.008 c 0.354,0.068 0.935,0.068 1.289,0 0.355,-0.068 0.065,-0.124 -0.644,-0.124 -0.71,0 -1,0.056 -0.645,0.124 m 11.461,0 c 0.355,0.068 0.935,0.068 1.29,0 0.354,-0.068 0.064,-0.124 -0.645,-0.124 -0.709,0 -0.999,0.056 -0.645,0.124 m 104.37,30.027 c -0.696,0.709 -1.201,1.289 -1.122,1.289 0.078,0 0.712,-0.58 1.408,-1.289 0.696,-0.709 1.201,-1.289 1.122,-1.289 -0.078,0 -0.712,0.58 -1.408,1.289 M 47.978,236.963 c 0,4.806 0.039,6.773 0.087,4.369 0.048,-2.403 0.048,-6.336 0,-8.739 -0.048,-2.403 -0.087,-0.437 -0.087,4.37 m 73.942,42.693 c 0.776,0.788 1.475,1.433 1.554,1.433 0.079,0 -0.492,-0.645 -1.268,-1.433 -0.776,-0.788 -1.475,-1.433 -1.554,-1.433 -0.079,0 0.492,0.645 1.268,1.433 M 48.786,442.039 c 0.436,0.066 1.08,0.065 1.433,-0.003 0.352,-0.069 -0.004,-0.122 -0.792,-0.12 -0.788,0.002 -1.076,0.058 -0.641,0.123 m 125.283,37.331 c -2.36,2.364 -4.227,4.298 -4.148,4.298 0.079,0 2.074,-1.934 4.434,-4.298 2.36,-2.364 4.227,-4.298 4.148,-4.298 -0.079,0 -2.074,1.934 -4.434,4.298 m -6.457,6.518 -1.566,1.648 1.647,-1.566 c 1.531,-1.455 1.779,-1.729 1.567,-1.729 -0.045,0 -0.787,0.741 -1.648,1.647 m -5.009,5.015 -3.147,3.223 3.223,-3.147 c 1.773,-1.731 3.224,-3.181 3.224,-3.223 0,-0.207 -0.377,0.152 -3.3,3.147 m -5.164,5.157 -1.422,1.504 1.504,-1.421 c 1.398,-1.322 1.636,-1.587 1.422,-1.587 -0.045,0 -0.722,0.677 -1.504,1.504 m -13.171,13.181 -11.46,11.533 11.533,-11.46 c 6.343,-6.303 11.533,-11.493 11.533,-11.533 0,-0.202 -0.955,0.74 -11.606,11.46"
         id="path2"
         style="fill:#949495;fill-rule:evenodd;stroke:none" />
      <path
         d="m 211.305,41.834 c 0,6.067 0.038,8.549 0.084,5.516 0.047,-3.034 0.047,-7.998 0,-11.032 -0.046,-3.034 -0.084,-0.552 -0.084,5.516 m 24.5,-1.075 c 0.702,0.749 1.315,1.361 1.361,1.361 0.215,0 -0.013,-0.257 -1.278,-1.444 l -1.361,-1.278 1.278,1.361 m -70.048,66.404 c 0,36.483 0.033,51.408 0.074,33.167 0.041,-18.242 0.041,-48.091 0,-66.333 -0.041,-18.241 -0.074,-3.316 -0.074,33.166 m 45.554,-32.808 c 0,11.505 0.035,16.169 0.079,10.366 0.043,-5.803 0.043,-15.216 0,-20.917 -0.044,-5.701 -0.079,-0.953 -0.079,10.551 m 34.047,-11.318 c 0,0.867 0.054,1.222 0.119,0.788 0.066,-0.433 0.066,-1.142 0,-1.576 -0.065,-0.433 -0.119,-0.079 -0.119,0.788 m -9.27,21.992 -0.988,1.074 1.075,-0.987 c 1,-0.919 1.206,-1.162 0.987,-1.162 -0.048,0 -0.531,0.484 -1.074,1.075 m -118.036,33.309 -18.482,0.15 18.393,0.068 c 12.027,0.045 18.454,-0.031 18.57,-0.218 0.097,-0.157 0.137,-0.256 0.088,-0.218 -0.048,0.038 -8.405,0.136 -18.569,0.218 M 50,118.545 c 12.494,0.2 22.493,0.203 22.493,0.008 0,-0.118 -6.157,-0.186 -13.682,-0.15 -7.525,0.035 -11.49,0.099 -8.811,0.142 m 24.751,19.206 c 0.15,0.276 2.722,4.732 5.717,9.904 l 5.445,9.402 1.14,-1.952 c 0.627,-1.074 3.204,-5.531 5.727,-9.904 l 4.588,-7.952 H 85.923 c -10.812,0 -11.43,0.028 -11.172,0.502 m 182.928,1.504 c 0,0.867 0.054,1.221 0.119,0.788 0.066,-0.433 0.066,-1.143 0,-1.576 -0.065,-0.433 -0.119,-0.079 -0.119,0.788 M 30.215,227.65 c 0,5.516 0.039,7.732 0.085,4.925 0.047,-2.808 0.047,-7.321 0,-10.029 -0.047,-2.708 -0.085,-0.411 -0.085,5.104 m 148.438,-9.025 -13.18,0.152 13.092,0.067 c 8.492,0.044 13.154,-0.033 13.269,-0.219 0.097,-0.158 0.137,-0.257 0.088,-0.22 -0.048,0.037 -6.019,0.136 -13.269,0.22 m -50.766,0.214 c 6.906,0.043 18.124,0.043 24.928,0 6.804,-0.042 1.153,-0.077 -12.557,-0.077 -13.711,0 -19.278,0.035 -12.371,0.077 m 37.857,9.528 c 0,5.122 0.039,7.217 0.086,4.656 0.048,-2.561 0.048,-6.752 0,-9.312 -0.047,-2.561 -0.086,-0.466 -0.086,4.656 m 0.517,9.653 c 0.276,0.072 0.727,0.072 1.003,0 0.275,-0.072 0.05,-0.131 -0.502,-0.131 -0.551,0 -0.777,0.059 -0.501,0.131 M 50.143,249.937 c 0,0.248 0.198,0.65 0.44,0.892 0.242,0.242 0.43,0.512 0.416,0.601 -0.049,0.333 1.538,3.011 1.786,3.011 0.141,0 0.178,0.129 0.08,0.287 -0.097,0.157 -0.033,0.286 0.144,0.286 0.176,0 0.252,0.11 0.17,0.243 -0.083,0.134 0.095,0.507 0.395,0.83 0.301,0.322 0.468,0.664 0.372,0.759 -0.095,0.096 -0.023,0.174 0.161,0.174 0.184,0 0.334,0.184 0.334,0.409 0,0.226 0.226,0.635 0.502,0.911 0.275,0.276 0.457,0.511 0.403,0.522 -0.215,0.045 0.637,1.596 0.877,1.596 0.142,0 0.178,0.129 0.081,0.287 -0.098,0.158 -0.041,0.287 0.126,0.287 0.167,0 0.304,0.193 0.304,0.429 0,0.237 0.136,0.43 0.303,0.43 0.167,0 0.224,0.129 0.126,0.287 -0.097,0.157 -0.033,0.286 0.144,0.286 0.176,0 0.252,0.11 0.17,0.243 -0.083,0.134 0.095,0.507 0.395,0.829 0.301,0.323 0.468,0.665 0.372,0.76 -0.095,0.096 -0.049,0.174 0.103,0.174 0.153,0 0.44,0.451 0.64,1.003 0.199,0.551 0.483,1.003 0.63,1.003 0.148,0 0.268,0.193 0.268,0.429 0,0.237 0.137,0.43 0.304,0.43 0.167,0 0.224,0.129 0.126,0.287 -0.097,0.157 -0.033,0.286 0.143,0.286 0.177,0 0.241,0.129 0.144,0.287 -0.098,0.157 -0.055,0.286 0.095,0.286 0.15,0 0.353,0.323 0.452,0.717 0.099,0.394 0.314,0.716 0.478,0.716 0.164,0 0.23,0.109 0.148,0.243 -0.083,0.134 0.095,0.507 0.395,0.829 0.301,0.323 0.468,0.664 0.372,0.76 -0.095,0.096 -0.015,0.174 0.178,0.174 0.193,0 0.283,0.109 0.201,0.243 -0.083,0.134 0.095,0.507 0.395,0.829 0.301,0.322 0.468,0.664 0.373,0.76 -0.096,0.095 -0.024,0.174 0.16,0.174 0.184,0 0.334,0.193 0.334,0.429 0,0.237 0.137,0.43 0.304,0.43 0.167,0 0.224,0.129 0.126,0.287 -0.097,0.157 -0.033,0.286 0.143,0.286 0.177,0 0.241,0.129 0.144,0.287 -0.098,0.157 -0.055,0.286 0.095,0.286 0.15,0 0.353,0.323 0.452,0.717 0.099,0.394 0.314,0.716 0.478,0.716 0.164,0 0.218,0.129 0.121,0.286 -0.098,0.158 -0.041,0.287 0.126,0.287 0.167,0 0.304,0.193 0.304,0.43 0,0.236 0.136,0.43 0.303,0.43 0.167,0 0.224,0.129 0.126,0.286 -0.097,0.158 -0.032,0.287 0.144,0.287 0.176,0 0.24,0.129 0.142,0.288 -0.098,0.159 0.022,0.366 0.268,0.46 0.245,0.094 0.375,0.287 0.287,0.428 -0.087,0.141 -0.014,0.256 0.162,0.256 0.177,0 0.241,0.129 0.144,0.287 -0.098,0.157 -0.041,0.286 0.126,0.286 0.167,0 0.303,0.194 0.303,0.43 0,0.237 0.129,0.43 0.287,0.43 0.158,0 0.254,0.104 0.215,0.23 -0.103,0.33 1.015,2.349 1.3,2.349 0.131,0 0.158,0.129 0.061,0.286 -0.098,0.158 -0.041,0.287 0.126,0.287 0.167,0 0.304,0.193 0.304,0.43 0,0.236 0.136,0.429 0.303,0.429 0.167,0 0.224,0.129 0.126,0.287 -0.097,0.158 -0.04,0.286 0.127,0.286 0.167,0 0.281,0.097 0.253,0.215 -0.075,0.322 0.684,1.791 0.925,1.791 0.115,0 0.29,0.323 0.389,0.717 0.099,0.394 0.314,0.716 0.478,0.716 0.164,0 0.218,0.129 0.121,0.286 -0.098,0.158 -0.041,0.287 0.126,0.287 0.167,0 0.304,0.193 0.304,0.43 0,0.236 0.136,0.43 0.303,0.43 0.167,0 0.224,0.128 0.126,0.286 -0.097,0.158 -0.033,0.287 0.144,0.287 0.176,0 0.24,0.129 0.143,0.286 -0.098,0.158 -0.041,0.287 0.126,0.287 0.167,0 0.304,0.193 0.304,0.429 0,0.237 0.136,0.43 0.303,0.43 0.167,0 0.224,0.129 0.126,0.287 -0.097,0.157 -0.032,0.286 0.144,0.286 0.176,0 0.252,0.11 0.17,0.243 -0.083,0.134 0.095,0.507 0.395,0.83 0.301,0.322 0.468,0.664 0.373,0.759 -0.096,0.096 -0.038,0.174 0.129,0.174 0.167,0 0.384,0.322 0.483,0.716 0.099,0.394 0.314,0.717 0.478,0.717 0.164,0 0.218,0.129 0.121,0.286 -0.098,0.158 -0.041,0.287 0.126,0.287 0.167,0 0.303,0.193 0.303,0.43 0,0.236 0.137,0.429 0.304,0.429 0.167,0 0.224,0.129 0.126,0.287 -0.097,0.158 -0.04,0.286 0.127,0.286 0.167,0 0.281,0.097 0.253,0.215 -0.083,0.357 0.696,1.791 0.973,1.791 0.141,0 0.177,0.129 0.08,0.287 -0.097,0.157 -0.041,0.286 0.126,0.286 0.167,0 0.304,0.194 0.304,0.43 0,0.236 0.136,0.43 0.303,0.43 0.167,0 0.224,0.129 0.127,0.286 -0.098,0.158 -0.033,0.287 0.143,0.287 0.176,0 0.253,0.109 0.17,0.243 -0.083,0.134 0.095,0.507 0.396,0.829 0.3,0.322 0.467,0.664 0.372,0.76 -0.096,0.095 -0.038,0.174 0.129,0.174 0.167,0 0.384,0.322 0.483,0.716 0.099,0.394 0.314,0.716 0.478,0.716 0.164,0 0.218,0.129 0.121,0.287 -0.098,0.157 -0.041,0.286 0.126,0.286 0.167,0 0.304,0.194 0.304,0.43 0,0.237 0.136,0.43 0.303,0.43 0.167,0 0.224,0.129 0.126,0.287 -0.097,0.157 -0.033,0.286 0.144,0.286 0.176,0 0.24,0.129 0.143,0.287 -0.097,0.157 -0.041,0.286 0.126,0.286 0.167,0 0.304,0.194 0.304,0.43 0,0.236 0.136,0.43 0.303,0.43 0.167,0 0.224,0.129 0.127,0.286 -0.098,0.158 -0.055,0.287 0.095,0.287 0.15,0 0.353,0.322 0.452,0.716 0.099,0.394 0.314,0.716 0.478,0.716 0.164,0 0.218,0.129 0.121,0.287 -0.098,0.158 -0.055,0.287 0.095,0.287 0.15,0 0.353,0.322 0.452,0.716 0.099,0.394 0.314,0.716 0.478,0.716 0.164,0 0.218,0.129 0.121,0.287 -0.098,0.157 -0.041,0.286 0.126,0.286 0.167,0 0.304,0.194 0.304,0.43 0,0.236 0.136,0.43 0.303,0.43 0.167,0 0.224,0.129 0.126,0.286 -0.097,0.158 -0.033,0.287 0.144,0.287 0.176,0 0.24,0.129 0.143,0.286 -0.097,0.158 -0.041,0.287 0.126,0.287 0.167,0 0.304,0.193 0.304,0.43 0,0.236 0.136,0.43 0.303,0.43 0.167,0 0.224,0.129 0.127,0.286 -0.098,0.158 -0.033,0.287 0.143,0.287 0.176,0 0.253,0.109 0.17,0.243 -0.083,0.134 0.108,0.52 0.424,0.859 0.316,0.339 0.496,0.617 0.399,0.617 -0.096,0 0.028,0.202 0.276,0.45 0.247,0.248 0.45,0.635 0.45,0.86 0,0.225 0.137,0.409 0.303,0.409 0.167,0 0.224,0.129 0.127,0.287 -0.098,0.157 -0.041,0.286 0.126,0.286 0.167,0 0.304,0.194 0.304,0.43 0,0.236 0.136,0.43 0.303,0.43 0.167,0 0.224,0.129 0.126,0.286 -0.097,0.158 -0.04,0.287 0.127,0.287 0.167,0 0.281,0.096 0.253,0.215 -0.083,0.356 0.696,1.79 0.973,1.79 0.141,0 0.177,0.129 0.08,0.287 -0.097,0.158 -0.04,0.287 0.126,0.287 0.167,0 0.304,0.193 0.304,0.429 0,0.237 0.136,0.43 0.303,0.43 0.167,0 0.224,0.129 0.127,0.287 -0.098,0.157 -0.041,0.286 0.126,0.286 0.167,0 0.303,0.184 0.303,0.41 0,0.225 0.226,0.635 0.502,0.91 0.276,0.276 0.456,0.511 0.4,0.522 -0.204,0.041 0.931,2.17 1.157,2.17 0.129,0 0.234,0.193 0.234,0.429 0,0.237 0.136,0.43 0.303,0.43 0.167,0 0.224,0.129 0.127,0.287 -0.098,0.157 -0.033,0.286 0.143,0.286 0.176,0 0.24,0.129 0.143,0.287 -0.097,0.157 -0.04,0.286 0.126,0.286 0.167,0 0.304,0.194 0.304,0.43 0,0.237 0.136,0.43 0.303,0.43 0.167,0 0.224,0.129 0.127,0.287 -0.098,0.157 -0.041,0.286 0.126,0.286 0.167,0 0.281,0.097 0.253,0.215 -0.074,0.322 0.684,1.791 0.925,1.791 0.115,0 0.29,0.322 0.389,0.716 0.099,0.394 0.314,0.716 0.478,0.716 0.164,0 0.218,0.129 0.121,0.287 -0.097,0.158 -0.041,0.287 0.126,0.287 0.167,0 0.304,0.193 0.304,0.429 0,0.237 0.136,0.43 0.303,0.43 0.167,0 0.224,0.129 0.127,0.287 -0.098,0.157 -0.041,0.286 0.126,0.286 0.167,0 0.274,0.097 0.239,0.215 -0.101,0.333 1.555,3.224 1.846,3.224 0.142,0 0.178,0.129 0.081,0.286 -0.098,0.158 -0.055,0.287 0.095,0.287 0.15,0 0.353,0.322 0.452,0.716 0.099,0.394 0.314,0.716 0.478,0.716 0.164,0 0.218,0.129 0.121,0.287 -0.097,0.157 -0.055,0.286 0.095,0.286 0.15,0 0.354,0.323 0.452,0.717 0.099,0.394 0.314,0.716 0.478,0.716 0.164,0 0.218,0.129 0.121,0.287 -0.097,0.157 -0.04,0.286 0.126,0.286 0.167,0 0.304,0.194 0.304,0.43 0,0.236 0.136,0.43 0.303,0.43 0.167,0 0.224,0.129 0.127,0.286 -0.098,0.158 -0.033,0.287 0.143,0.287 0.176,0 0.241,0.129 0.143,0.286 -0.097,0.158 -0.04,0.287 0.127,0.287 0.166,0 0.303,0.193 0.303,0.43 0,0.236 0.137,0.429 0.303,0.429 0.167,0 0.224,0.129 0.127,0.287 -0.098,0.158 -0.041,0.287 0.126,0.287 0.167,0 0.304,0.184 0.304,0.409 0,0.225 0.198,0.607 0.44,0.849 0.242,0.242 0.423,0.477 0.403,0.522 -0.099,0.221 0.715,1.658 0.939,1.658 0.141,0 0.177,0.129 0.08,0.286 -0.097,0.158 -0.04,0.287 0.126,0.287 0.167,0 0.304,0.193 0.304,0.43 0,0.236 0.136,0.43 0.303,0.43 0.167,0 0.224,0.129 0.127,0.286 -0.098,0.158 -0.033,0.287 0.143,0.287 0.176,0 0.241,0.129 0.143,0.286 -0.097,0.158 -0.04,0.287 0.127,0.287 0.166,0 0.303,0.193 0.303,0.43 0,0.236 0.129,0.429 0.287,0.429 0.157,0 0.264,0.097 0.236,0.215 -0.083,0.357 0.696,1.791 0.973,1.791 0.141,0 0.177,0.129 0.08,0.287 -0.097,0.157 -0.041,0.286 0.126,0.286 0.167,0 0.304,0.194 0.304,0.43 0,0.236 0.136,0.43 0.303,0.43 0.167,0 0.224,0.129 0.127,0.286 -0.098,0.158 -0.033,0.287 0.143,0.287 0.176,0 0.24,0.129 0.143,0.286 -0.097,0.158 -0.04,0.287 0.126,0.287 0.167,0 0.304,0.193 0.304,0.43 0,0.236 0.15,0.429 0.334,0.429 0.184,0 0.252,0.083 0.151,0.184 -0.22,0.22 0.682,1.822 1.026,1.822 0.133,0 0.162,0.129 0.065,0.287 -0.098,0.157 -0.033,0.286 0.143,0.286 0.176,0 0.241,0.129 0.143,0.287 -0.097,0.157 -0.04,0.286 0.127,0.286 0.167,0 0.303,0.194 0.303,0.43 0,0.236 0.137,0.43 0.304,0.43 0.166,0 0.223,0.129 0.126,0.286 -0.097,0.158 -0.041,0.287 0.126,0.287 0.167,0 0.304,0.193 0.304,0.43 0,0.236 0.136,0.43 0.303,0.43 0.167,0 0.224,0.129 0.127,0.286 -0.098,0.158 -0.033,0.287 0.143,0.287 0.176,0 0.24,0.129 0.143,0.286 -0.097,0.158 -0.054,0.287 0.095,0.287 0.15,0 0.354,0.322 0.453,0.716 0.098,0.394 0.313,0.716 0.477,0.716 0.164,0 0.219,0.129 0.121,0.287 -0.097,0.157 -0.04,0.286 0.127,0.286 0.166,0 0.303,0.194 0.303,0.43 0,0.237 0.137,0.43 0.303,0.43 0.167,0 0.224,0.129 0.127,0.287 -0.098,0.157 -0.019,0.286 0.174,0.286 0.193,0 0.274,0.077 0.18,0.171 -0.183,0.183 1.475,3.059 1.857,3.22 0.125,0.053 0.155,0.214 0.066,0.359 -0.089,0.144 -0.039,0.262 0.11,0.262 0.15,0 0.354,0.322 0.452,0.716 0.099,0.394 0.314,0.716 0.478,0.716 0.164,0 0.219,0.129 0.121,0.287 -0.097,0.157 -0.04,0.286 0.127,0.286 0.166,0 0.303,0.194 0.303,0.43 0,0.236 0.137,0.43 0.303,0.43 0.167,0 0.224,0.129 0.127,0.286 -0.098,0.158 -0.041,0.287 0.126,0.287 0.167,0 0.281,0.097 0.254,0.215 -0.075,0.322 0.683,1.791 0.924,1.791 0.115,0 0.29,0.322 0.389,0.716 0.099,0.394 0.314,0.716 0.478,0.716 0.164,0 0.218,0.129 0.121,0.287 -0.097,0.157 -0.041,0.286 0.126,0.286 0.167,0 0.304,0.194 0.304,0.43 0,0.237 0.136,0.43 0.303,0.43 0.167,0 0.224,0.129 0.127,0.287 -0.098,0.157 -0.033,0.286 0.143,0.286 0.176,0 0.247,0.118 0.158,0.262 -0.089,0.144 -0.064,0.305 0.055,0.358 0.119,0.053 0.599,0.838 1.066,1.744 0.467,0.906 0.959,1.648 1.092,1.648 0.133,0 0.161,0.129 0.063,0.288 -0.098,0.159 0.023,0.366 0.268,0.46 0.246,0.094 0.375,0.287 0.288,0.428 -0.087,0.141 -0.014,0.256 0.162,0.256 0.176,0 0.24,0.129 0.143,0.287 -0.097,0.157 -0.041,0.286 0.126,0.286 0.167,0 0.304,0.184 0.304,0.41 0,0.225 0.198,0.607 0.44,0.849 0.242,0.242 0.435,0.541 0.43,0.665 -0.006,0.124 0.215,0.225 0.491,0.225 0.276,0 0.469,-0.161 0.43,-0.358 -0.04,-0.197 0.057,-0.358 0.215,-0.358 0.157,0 0.286,-0.193 0.286,-0.43 0,-0.236 0.137,-0.43 0.304,-0.43 0.166,0 0.232,-0.115 0.144,-0.256 -0.087,-0.141 0.043,-0.334 0.288,-0.428 0.246,-0.094 0.366,-0.301 0.268,-0.46 -0.098,-0.158 -0.034,-0.288 0.142,-0.288 0.176,0 0.241,-0.129 0.143,-0.287 -0.097,-0.157 -0.056,-0.286 0.092,-0.286 0.147,0 0.638,-0.742 1.091,-1.648 0.453,-0.906 0.921,-1.691 1.04,-1.744 0.119,-0.052 0.144,-0.214 0.055,-0.358 -0.089,-0.144 -0.018,-0.262 0.158,-0.262 0.176,0 0.241,-0.129 0.143,-0.286 -0.097,-0.158 -0.033,-0.287 0.144,-0.287 0.176,0 0.24,-0.129 0.143,-0.286 -0.098,-0.158 -0.033,-0.287 0.143,-0.287 0.176,0 0.241,-0.129 0.143,-0.287 -0.097,-0.157 -0.056,-0.286 0.091,-0.286 0.282,0 1.57,-2.75 1.577,-3.367 0.002,-0.197 0.119,-0.358 0.259,-0.358 0.141,0 0.183,-0.118 0.094,-0.262 -0.089,-0.144 -0.026,-0.307 0.139,-0.362 0.166,-0.056 0.323,-0.389 0.35,-0.741 0.026,-0.353 0.157,-0.641 0.29,-0.641 0.134,0 0.17,-0.118 0.081,-0.262 -0.089,-0.144 -0.036,-0.305 0.118,-0.358 0.154,-0.053 0.32,-0.354 0.368,-0.669 0.049,-0.315 0.189,-0.734 0.312,-0.931 0.123,-0.197 0.119,-0.36 -0.008,-0.363 -0.128,-0.002 -0.09,-0.099 0.084,-0.215 0.289,-0.192 1.183,-2.562 1.408,-3.733 0.052,-0.269 0.12,-0.521 0.152,-0.56 0.032,-0.04 0.085,-0.169 0.118,-0.287 0.033,-0.118 0.221,-0.602 0.418,-1.074 0.196,-0.473 0.394,-1.118 0.439,-1.433 0.045,-0.315 0.158,-0.767 0.252,-1.003 0.59,-1.493 2.332,-10.116 2.459,-12.178 0.019,-0.315 0.098,-1.088 0.176,-1.719 0.749,-6.108 0.752,-14.573 0.009,-20.917 -0.074,-0.63 -0.151,-1.339 -0.171,-1.576 -0.217,-2.591 -2.244,-12.096 -2.93,-13.738 -0.168,-0.402 -0.333,-0.828 -0.366,-0.946 -0.033,-0.119 -0.091,-0.312 -0.129,-0.43 -0.039,-0.118 -0.055,-0.312 -0.036,-0.431 0.047,-0.296 -2.288,-6.626 -2.51,-6.804 -0.098,-0.079 -0.222,-0.401 -0.276,-0.717 -0.054,-0.315 -0.216,-0.616 -0.36,-0.669 -0.144,-0.053 -0.189,-0.214 -0.1,-0.358 0.089,-0.144 0.025,-0.262 -0.142,-0.262 -0.167,0 -0.277,-0.097 -0.244,-0.215 0.112,-0.411 -0.679,-2.364 -0.958,-2.364 -0.155,0 -0.201,-0.129 -0.104,-0.286 0.097,-0.158 0.033,-0.287 -0.143,-0.287 -0.177,0 -0.247,-0.118 -0.158,-0.263 0.09,-0.145 -0.026,-0.452 -0.256,-0.682 -0.23,-0.231 -0.339,-0.499 -0.241,-0.597 0.097,-0.097 0.019,-0.177 -0.174,-0.177 -0.193,0 -0.272,-0.129 -0.174,-0.287 0.097,-0.157 0.033,-0.286 -0.143,-0.286 -0.177,0 -0.241,-0.129 -0.144,-0.287 0.098,-0.157 0.033,-0.286 -0.143,-0.286 -0.176,0 -0.241,-0.129 -0.143,-0.287 0.097,-0.157 0.04,-0.286 -0.127,-0.286 -0.167,0 -0.28,-0.097 -0.251,-0.215 0.084,-0.351 -0.996,-2.364 -1.268,-2.364 -0.138,0 -0.183,-0.109 -0.1,-0.243 0.082,-0.134 -0.078,-0.488 -0.358,-0.788 -0.279,-0.3 -0.531,-0.674 -0.56,-0.831 -0.03,-0.158 -0.248,-0.514 -0.486,-0.792 -0.237,-0.277 -0.432,-0.632 -0.432,-0.788 0,-0.155 -0.136,-0.283 -0.303,-0.283 -0.167,0 -0.224,-0.13 -0.125,-0.288 0.098,-0.159 -0.023,-0.366 -0.268,-0.46 -0.246,-0.095 -0.375,-0.287 -0.288,-0.428 0.087,-0.141 0.022,-0.257 -0.145,-0.257 -0.167,0 -0.304,-0.197 -0.304,-0.438 0,-0.242 -0.192,-0.513 -0.428,-0.603 -0.235,-0.091 -0.356,-0.281 -0.268,-0.423 0.088,-0.142 -0.042,-0.336 -0.288,-0.431 -0.247,-0.094 -0.448,-0.337 -0.448,-0.54 0,-0.203 -0.202,-0.446 -0.448,-0.541 -0.247,-0.094 -0.367,-0.302 -0.269,-0.462 0.099,-0.16 -0.022,-0.368 -0.268,-0.462 -0.246,-0.095 -0.448,-0.356 -0.448,-0.581 0,-0.224 -0.193,-0.482 -0.43,-0.573 -0.236,-0.09 -0.43,-0.34 -0.43,-0.554 0,-0.214 -0.257,-0.527 -0.573,-0.695 -0.315,-0.169 -0.573,-0.481 -0.573,-0.694 0,-0.212 -0.321,-0.597 -0.714,-0.855 -0.393,-0.257 -0.683,-0.588 -0.645,-0.735 0.039,-0.146 -0.293,-0.628 -0.737,-1.069 -0.443,-0.441 -2.737,-2.768 -5.096,-5.172 -2.359,-2.403 -4.407,-4.369 -4.551,-4.369 -0.144,0 -0.603,-0.448 -1.02,-0.994 -0.417,-0.547 -0.859,-0.966 -0.983,-0.931 -0.124,0.034 -0.555,-0.26 -0.96,-0.654 -1.489,-1.452 -1.825,-1.719 -2.16,-1.719 -0.189,0 -0.418,-0.194 -0.509,-0.43 -0.09,-0.236 -0.33,-0.43 -0.533,-0.43 -0.203,0 -0.443,-0.193 -0.533,-0.43 -0.091,-0.236 -0.349,-0.429 -0.573,-0.429 -0.225,0 -0.486,-0.202 -0.58,-0.448 -0.095,-0.247 -0.303,-0.368 -0.463,-0.269 -0.16,0.099 -0.368,-0.021 -0.462,-0.267 -0.094,-0.245 -0.287,-0.374 -0.43,-0.286 -0.142,0.088 -0.335,-0.042 -0.43,-0.288 -0.095,-0.247 -0.292,-0.448 -0.44,-0.448 -0.147,0 -0.544,-0.258 -0.883,-0.573 -0.338,-0.315 -0.784,-0.573 -0.991,-0.573 -0.206,0 -0.375,-0.129 -0.375,-0.287 0,-0.157 -0.194,-0.286 -0.43,-0.286 -0.237,0 -0.43,-0.137 -0.43,-0.304 0,-0.167 -0.129,-0.224 -0.287,-0.126 -0.157,0.097 -0.286,0.04 -0.286,-0.127 0,-0.166 -0.193,-0.303 -0.43,-0.303 -0.236,0 -0.43,-0.137 -0.43,-0.303 0,-0.167 -0.115,-0.233 -0.256,-0.145 -0.141,0.087 -0.334,-0.043 -0.428,-0.288 -0.094,-0.246 -0.301,-0.366 -0.46,-0.268 -0.158,0.098 -0.288,0.062 -0.288,-0.079 0,-0.277 -1.435,-1.056 -1.791,-0.973 -0.118,0.028 -0.215,-0.086 -0.215,-0.253 0,-0.167 -0.129,-0.224 -0.287,-0.127 -0.157,0.098 -0.286,0.033 -0.286,-0.143 0,-0.176 -0.118,-0.247 -0.262,-0.158 -0.144,0.089 -0.305,0.063 -0.358,-0.058 -0.148,-0.338 -6.543,-3.569 -6.548,-3.309 -0.002,0.127 -0.111,0.062 -0.241,-0.142 -0.129,-0.205 -0.514,-0.394 -0.855,-0.42 -0.34,-0.025 -0.619,-0.155 -0.619,-0.289 0,-0.133 -0.129,-0.162 -0.286,-0.065 -0.158,0.097 -0.287,0.04 -0.287,-0.126 0,-0.167 -0.096,-0.276 -0.215,-0.243 -0.118,0.033 -0.505,-0.1 -0.859,-0.297 -0.355,-0.196 -0.645,-0.272 -0.645,-0.169 0,0.104 -0.176,0.042 -0.392,-0.137 -0.599,-0.497 -6.779,-2.639 -7.08,-2.453 -0.145,0.09 -0.264,0.013 -0.264,-0.17 0,-0.184 -0.178,-0.266 -0.395,-0.183 -0.217,0.083 -0.507,0.042 -0.645,-0.093 -0.524,-0.512 -10.291,-2.835 -13.86,-3.297 -6.192,-0.8 -8.061,-0.994 -11.246,-1.17 -3.222,-0.177 -3.654,-0.147 -3.654,0.252 m -1.869,23.415 c 0,13.002 0.035,18.321 0.078,11.82 0.043,-6.501 0.043,-17.138 0,-23.639 -0.043,-6.501 -0.078,-1.182 -0.078,11.819 m 1.149,61.462 c 0,20.644 0.034,29.048 0.076,18.674 0.041,-10.374 0.041,-27.265 0,-37.536 -0.042,-10.271 -0.076,-1.783 -0.076,18.862 m -1.213,38.968 c 0.003,0.631 0.062,0.855 0.13,0.498 0.069,-0.356 0.066,-0.872 -0.006,-1.146 -0.071,-0.274 -0.127,0.018 -0.124,0.648 m 0.066,35.817 c 0,17.65 0.034,24.829 0.076,15.952 0.042,-8.877 0.042,-23.318 0,-32.092 -0.042,-8.773 -0.076,-1.511 -0.076,16.14 M 89.78,552.65 c 24.715,0.041 65.073,0.041 89.684,0 24.612,-0.04 4.39,-0.073 -44.937,-0.073 -49.326,0 -69.463,0.033 -44.747,0.073"
         id="path3"
         style="fill:#1a4364;fill-opacity:1;fill-rule:evenodd;stroke:none" />
      <path
         d="m 212.249,31.148 c 0.355,0.068 0.935,0.068 1.29,0 0.354,-0.069 0.064,-0.124 -0.645,-0.124 -0.709,0 -0.999,0.055 -0.645,0.124 m -44.985,8.882 c 0.354,0.069 0.934,0.069 1.289,0 0.355,-0.068 0.064,-0.124 -0.645,-0.124 -0.709,0 -0.999,0.056 -0.644,0.124 m 0.863,0.574 c 0.356,0.068 0.872,0.066 1.146,-0.006 0.274,-0.072 -0.018,-0.128 -0.648,-0.125 -0.631,0.004 -0.855,0.062 -0.498,0.131 m 43.836,54.441 c 0.354,0.068 0.935,0.068 1.289,0 0.355,-0.069 0.065,-0.125 -0.645,-0.125 -0.709,0 -0.999,0.056 -0.644,0.125 m 46.315,44.21 c 0,2.128 0.046,2.998 0.101,1.934 0.055,-1.064 0.055,-2.804 0,-3.868 -0.055,-1.064 -0.101,-0.193 -0.101,1.934 m -168.02,42.088 c 0,0.906 21.346,36.918 21.633,36.498 0.527,-0.769 21.06,-36.4 21.06,-36.545 0,-0.07 -9.606,-0.115 -21.346,-0.101 -11.741,0.015 -21.347,0.082 -21.347,0.148 M 41.602,210.1 c -0.03,2.798 0.042,5.086 0.16,5.087 0.118,0 0.181,-1.515 0.14,-3.367 -0.139,-6.233 -0.244,-6.837 -0.3,-1.72 m 188.896,-0.859 -0.842,0.931 0.931,-0.842 c 0.513,-0.463 0.932,-0.882 0.932,-0.931 0,-0.221 -0.237,-0.026 -1.021,0.842 m -2.147,3.008 -0.987,1.075 1.074,-0.988 c 1.001,-0.919 1.207,-1.161 0.988,-1.161 -0.048,0 -0.532,0.483 -1.075,1.074 m -2.151,1.29 -0.842,0.931 0.931,-0.842 c 0.513,-0.463 0.932,-0.882 0.932,-0.931 0,-0.221 -0.237,-0.026 -1.021,0.842 m -57.074,24.481 c 0.276,0.072 0.727,0.072 1.003,0 0.276,-0.072 0.05,-0.131 -0.501,-0.131 -0.552,0 -0.778,0.059 -0.502,0.131 M 49.57,249.506 c 0,0.122 0.516,0.173 1.146,0.113 0.631,-0.06 1.146,-0.16 1.146,-0.222 0,-0.062 -0.515,-0.113 -1.146,-0.113 -0.63,0 -1.146,0.1 -1.146,0.222 m 69.341,27.088 c 0,0.049 0.419,0.468 0.931,0.931 l 0.932,0.842 -0.842,-0.931 c -0.784,-0.869 -1.021,-1.063 -1.021,-0.842 m 4.585,4.584 c 0,0.05 0.419,0.469 0.931,0.932 l 0.931,0.841 -0.841,-0.931 c -0.785,-0.868 -1.021,-1.063 -1.021,-0.842 M 9.534,335.244 c 0,0.709 0.056,0.999 0.124,0.644 0.068,-0.354 0.068,-0.935 0,-1.289 -0.068,-0.355 -0.124,-0.065 -0.124,0.645 m 140.103,4.298 c 0,0.551 0.059,0.777 0.131,0.501 0.072,-0.276 0.072,-0.727 0,-1.003 -0.072,-0.276 -0.131,-0.05 -0.131,0.502 m 0,12.32 c 0,0.552 0.059,0.778 0.131,0.502 0.072,-0.276 0.072,-0.727 0,-1.003 -0.072,-0.276 -0.131,-0.05 -0.131,0.501 m -98.416,90.174 c 0.357,0.069 0.872,0.066 1.146,-0.005 0.274,-0.072 -0.017,-0.128 -0.648,-0.125 -0.63,0.003 -0.854,0.062 -0.498,0.13 m -1.866,0.58 c 0.591,0.061 1.558,0.061 2.149,0 0.591,-0.062 0.108,-0.113 -1.074,-0.113 -1.182,0 -1.666,0.051 -1.075,0.113 m 247.618,19.633 -0.841,0.932 0.931,-0.842 c 0.868,-0.785 1.063,-1.021 0.842,-1.021 -0.05,0 -0.469,0.419 -0.932,0.931 m -148.263,24.212 -22.779,22.851 22.851,-22.778 c 21.243,-21.176 22.98,-22.924 22.779,-22.924 -0.04,0 -10.323,10.283 -22.851,22.851 m 14.47,24.785 -22.922,22.995 22.935,-22.863 c 12.614,-12.574 23.047,-22.761 23.183,-22.636 0.137,0.125 0.156,0.065 0.043,-0.132 -0.114,-0.197 -0.231,-0.358 -0.262,-0.358 -0.03,0 -10.37,10.348 -22.977,22.994 m 8.31,40.043 c -18.942,0.135 -17.528,0.156 14.971,0.218 23.781,0.046 35.889,-0.028 35.889,-0.218 0,-0.295 -9.369,-0.295 -50.86,0 m -98.903,0.215 c 14.157,0.041 37.237,0.041 51.29,0 14.052,-0.041 2.47,-0.074 -25.739,-0.074 -28.21,0 -39.707,0.033 -25.551,0.074"
         id="path4"
         style="fill:#737476;fill-rule:evenodd;stroke:none" />
    </g>
  </g>
</svg>
