<svg height="512pt" viewBox="0 -25 512 511" width="512pt" xmlns="http://www.w3.org/2000/svg"><path d="m288.222656 376.484375-163.652344-163.445313c-.261718-.261718-.488281-.542968-.683593-.84375l-113 112.851563c-4.066407 4.0625-4.066407 10.707031 0 14.765625l106.667969 106.527344c4.066406 4.058594 12.09375 7.382812 17.84375 7.382812h66.570312c5.746094 0 13.777344-3.324218 17.84375-7.382812l69.261719-69.171875c-.300781-.195313-.585938-.421875-.851563-.683594zm0 0" fill="#fff"/><path d="m149.5 237.9375-24.929688-24.898438c-.261718-.261718-.488281-.542968-.683593-.84375l-113 112.851563c-4.066407 4.0625-4.066407 10.707031 0 14.765625l25.355469 25.320312c-3.730469-4.082031-3.628907-10.464843.324218-14.410156zm0 0" fill="#e1eaf8"/><path d="m333.691406 423.242188c-2.035156 2.027343-5.367187 2.027343-7.402344 0l-12.339843-12.292969c-2.035157-2.027344-2.035157-5.347657 0-7.375l12.339843-12.292969c2.035157-2.027344 5.367188-2.027344 7.402344 0l12.339844 12.292969c2.035156 2.027343 2.035156 5.34375 0 7.375zm0 0" fill="#fff"/><path d="m471.273438 413.675781c-2.035157 2.027344-5.367188 2.027344-7.402344 0l-12.339844-12.292969c-2.035156-2.027343-2.035156-5.347656 0-7.375l12.339844-12.289062c2.035156-2.027344 5.367187-2.027344 7.402344 0l12.339843 12.289062c2.035157 2.027344 2.035157 5.347657 0 7.375zm0 0" fill="#fff"/><path d="m392.875 365.675781c-2.035156 2.027344-5.367188 2.027344-7.402344 0l-12.339844-12.292969c-2.035156-2.027343-2.035156-5.347656 0-7.375l12.339844-12.292968c2.035156-2.027344 5.367188-2.027344 7.402344 0l12.339844 12.292968c2.035156 2.027344 2.035156 5.347657 0 7.375zm0 0" fill="#fff"/><path d="m491.6875 173.304688c2.03125 2.03125 2.03125 5.351562 0 7.382812l-196.070312 195.796875c-2.03125 2.03125-5.359376 2.03125-7.394532 0l-163.652344-163.445313c-2.035156-2.027343-2.035156-5.351562 0-7.382812l196.066407-195.796875c2.03125-2.03125 5.359375-2.03125 7.394531 0zm0 0" fill="#76ffd9"/><path d="m407.175781 88.902344-203.460937 203.179687 22.304687 22.277344 203.460938-203.179687zm0 0" fill="#ffb400"/><path d="m371.582031 53.351562c2.03125 2.03125 2.03125 5.351563-.003906 7.382813l-196.070313 195.796875c-2.03125 2.027344-5.351562 2.027344-7.386718.003906l35.59375 35.546875 203.464844-203.179687zm0 0" fill="#ffc843"/><path d="m371.578125 53.351562c2.035156 2.03125 2.035156 5.351563 0 7.382813l-196.070313 195.796875c-2.03125 2.03125-5.359374 2.03125-7.390624 0l-43.546876-43.492188c-2.035156-2.027343-2.035156-5.351562 0-7.382812l196.066407-195.796875c2.03125-2.03125 5.359375-2.03125 7.394531 0zm0 0" fill="#c1c8d2"/><path d="m371.578125 53.351562c2.035156 2.03125 2.035156 5.351563 0 7.382813l-196.070313 195.796875c-2.03125 2.03125-5.359374 2.03125-7.390624 0l-43.546876-43.492188c-2.035156-2.027343-2.035156-5.351562 0-7.382812l196.066407-195.796875c2.03125-2.03125 5.359375-2.03125 7.394531 0zm0 0" fill="#76ffd9"/><path d="m345.570312 27.375-17.539062-17.515625c-2.035156-2.03125-5.359375-2.03125-7.394531 0l-196.066407 195.796875c-2.035156 2.03125-2.035156 5.355469 0 7.382812l17.535157 17.519532zm0 0" fill="#5de0bf"/><g fill="#434c54"><path d="m329.992188 381.925781c-3.492188 0-6.769532 1.351563-9.234376 3.804688l-12.339843 12.292969c-2.472657 2.460937-3.832031 5.742187-3.832031 9.238281 0 3.496093 1.359374 6.777343 3.832031 9.238281l12.339843 12.292969c2.464844 2.457031 5.742188 3.808593 9.234376 3.808593 3.488281 0 6.765624-1.351562 9.230468-3.808593l12.339844-12.292969c2.46875-2.460938 3.832031-5.742188 3.832031-9.238281 0-3.496094-1.363281-6.777344-3.832031-9.238281l-12.339844-12.292969c-2.460937-2.453125-5.742187-3.804688-9.230468-3.804688zm0 33.941407-8.640626-8.605469 8.640626-8.605469 8.636718 8.605469zm0 0"/><path d="m467.570312 372.359375c-3.492187 0-6.769531 1.351563-9.230468 3.808594l-12.339844 12.289062c-2.472656 2.460938-3.832031 5.742188-3.832031 9.238281 0 3.496094 1.359375 6.777344 3.832031 9.242188l12.335938 12.292969c2.464843 2.453125 5.742187 3.804687 9.234374 3.804687 3.488282 0 6.769532-1.351562 9.230469-3.804687l12.34375-12.292969c2.46875-2.464844 3.828125-5.746094 3.828125-9.242188 0-3.496093-1.359375-6.777343-3.832031-9.238281l-12.339844-12.292969c-2.460937-2.453124-5.742187-3.804687-9.230469-3.804687zm0 33.941406-8.636718-8.605469 8.636718-8.601562 8.636719 8.601562zm0 0"/><path d="m414.578125 349.695312c0-3.496093-1.363281-6.777343-3.832031-9.238281l-12.339844-12.292969c-2.464844-2.453124-5.742188-3.804687-9.234375-3.804687-3.488281 0-6.765625 1.351563-9.230469 3.804687l-12.339844 12.292969c-2.472656 2.460938-3.832031 5.742188-3.832031 9.238281 0 3.496094 1.359375 6.777344 3.832031 9.238282l12.339844 12.292968c2.464844 2.457032 5.742188 3.808594 9.230469 3.808594 3.492187 0 6.769531-1.351562 9.234375-3.808594l12.339844-12.292968c2.46875-2.460938 3.832031-5.742188 3.832031-9.238282zm-25.40625 8.605469-8.636719-8.605469 8.636719-8.601562 8.636719 8.601562zm0 0"/><path d="m504.164062 445.886719h-94.917968c-4.328125 0-7.835938 3.507812-7.835938 7.835937s3.507813 7.835938 7.835938 7.835938h94.917968c4.328126 0 7.835938-3.507813 7.835938-7.835938s-3.507812-7.835937-7.835938-7.835937zm0 0"/><path d="m497.226562 167.757812-163.660156-163.445312c-5.089844-5.082031-13.375-5.085938-18.46875 0l-196.066406 195.800781c-2.464844 2.460938-3.824219 5.742188-3.824219 9.238281 0 .140626.015625.277344.019531.417969l-109.878906 109.734375c-3.449218 3.441406-5.347656 8.035156-5.347656 12.925782 0 4.894531 1.898438 9.484374 5.347656 12.929687l106.667969 106.523437c5.523437 5.515626 15.574219 9.675782 23.382813 9.675782h235.046874c4.328126 0 7.835938-3.507813 7.835938-7.835938s-3.507812-7.835937-7.835938-7.835937h-139.089843l60.140625-60.0625c.144531.003906.285156.019531.425781.019531 3.34375 0 6.6875-1.269531 9.234375-3.8125l154.734375-154.519531c3.0625-3.058594 3.0625-8.019531.003906-11.082031-3.058593-3.0625-8.019531-3.066407-11.082031-.007813l-152.890625 152.679687-159.960937-159.753906 192.371093-192.105468 159.960938 159.753906-16.492188 16.46875c-3.0625 3.058594-3.066406 8.023437-.007812 11.082031 3.058593 3.0625 8.019531 3.070313 11.082031.011719l18.351562-18.324219c2.464844-2.464844 3.824219-5.746094 3.824219-9.238281 0-3.496094-1.359375-6.773438-3.824219-9.238282zm-219.324218 209.492188-11.199219 11.179688-16.65625-16.65625c-3.058594-3.0625-8.019531-3.0625-11.082031 0-3.058594 3.058593-3.058594 8.023437 0 11.082031l16.652344 16.652343-12.957032 12.941407-16.644531-16.644531c-3.058594-3.058594-8.023437-3.058594-11.082031 0-3.0625 3.0625-3.0625 8.023437 0 11.082031l16.632812 16.636719-12.957031 12.941406-16.625-16.625c-3.058594-3.0625-8.023437-3.0625-11.082031 0-3.0625 3.058594-3.0625 8.019531 0 11.082031l14.464844 14.460937c-1.222657.316407-2.394532.5-3.394532.5h-66.574218c-3.632813 0-9.730469-2.519531-12.300782-5.089843l-106.671875-106.523438c-.652343-.652343-.753906-1.433593-.753906-1.839843s.101563-1.1875.753906-1.839844l107.382813-107.234375zm0 0"/></g></svg>