<?xml version="1.0" encoding="iso-8859-1"?>
<!-- Generator: Adobe Illustrator 19.0.0, SVG Export Plug-In . SVG Version: 6.00 Build 0)  -->
<svg version="1.1" id="Capa_1" xmlns="http://www.w3.org/2000/svg" xmlns:xlink="http://www.w3.org/1999/xlink" x="0px" y="0px"
	 viewBox="0 0 539.077 539.077" style="enable-background:new 0 0 539.077 539.077;" xml:space="preserve">
<g>
	<g>
		<path d="M235.846,359.385h-44.923c-6.208,0-11.231-5.023-11.231-11.231c0-6.208,5.023-11.231,11.231-11.231h44.923
			c6.208,0,11.231,5.023,11.231,11.231C247.077,354.361,242.054,359.385,235.846,359.385z M235.846,314.462h-44.923
			c-6.208,0-11.231-5.023-11.231-11.231S184.715,292,190.923,292h44.923c6.208,0,11.231,5.023,11.231,11.231
			S242.054,314.462,235.846,314.462z M235.846,269.538h-44.923c-6.208,0-11.231-5.023-11.231-11.231
			c0-6.208,5.023-11.231,11.231-11.231h44.923c6.208,0,11.231,5.023,11.231,11.231C247.077,264.515,242.054,269.538,235.846,269.538
			z M393.077,202.154H146c-6.208,0-11.231-5.023-11.231-11.231c0-6.208,5.023-11.231,11.231-11.231h247.077
			c6.208,0,11.231,5.023,11.231,11.231C404.308,197.131,399.285,202.154,393.077,202.154z"/>
		<path d="M303.231,539.077h-67.385c-6.208,0-11.231-5.023-11.231-11.231v-42.357c-22.758-15.486-44.923-50.955-44.923-92.413v-292
			C179.692,45.34,219.998,0,269.538,0c49.551,0,89.846,45.34,89.846,101.077v292c0,41.479-22.154,76.948-44.923,92.413v42.357
			C314.462,534.054,309.438,539.077,303.231,539.077z M247.077,516.615H292V479.15c0-4.19,2.325-8.028,6.054-9.959
			c16.144-8.401,38.869-37.575,38.869-76.115v-292c0-43.344-30.227-78.615-67.385-78.615s-67.385,35.272-67.385,78.615v292
			c0,38.518,22.736,67.692,38.88,76.115c3.718,1.93,6.043,5.769,6.043,9.959V516.615z"/>
	</g>
</g>
<g>
</g>
<g>
</g>
<g>
</g>
<g>
</g>
<g>
</g>
<g>
</g>
<g>
</g>
<g>
</g>
<g>
</g>
<g>
</g>
<g>
</g>
<g>
</g>
<g>
</g>
<g>
</g>
<g>
</g>
</svg>
