<?xml version="1.0" encoding="iso-8859-1"?>
<!-- Generator: Adobe Illustrator 19.0.0, SVG Export Plug-In . SVG Version: 6.00 Build 0)  -->
<svg version="1.1" id="Layer_1" xmlns="http://www.w3.org/2000/svg" xmlns:xlink="http://www.w3.org/1999/xlink" x="0px" y="0px"
	 viewBox="0 0 512 512" style="enable-background:new 0 0 512 512;" xml:space="preserve">
<path style="fill:#F27258;" d="M412.461,53.916h-16.276v85.73c0,15.638-12.731,28.355-28.355,28.355H147.543h-39.697
	c-15.638,0-28.355-12.717-28.355-28.355v-85.73H36.181v429.729h43.312V305.21c0-15.638,12.717-28.355,28.355-28.355h296.306
	c15.638,0,28.355,12.717,28.355,28.355v123.683c0,7.826-6.351,14.177-14.177,14.177c-0.099,0-0.198,0-0.284,0v40.576h57.773V117.289
	L412.461,53.916z"/>
<path style="fill:#FFDB6F;" d="M418.047,443.07v40.576h-310.2V305.21h296.306v123.683
	C404.153,436.619,410.349,442.914,418.047,443.07z M358.786,359.962c0-7.826-6.351-14.177-14.177-14.177H167.392
	c-7.826,0-14.177,6.351-14.177,14.177c0,7.826,6.351,14.177,14.177,14.177h177.217C352.434,374.14,358.786,367.788,358.786,359.962z
	 M358.786,428.892c0-7.826-6.351-14.177-14.177-14.177H167.392c-7.826,0-14.177,6.351-14.177,14.177s6.351,14.177,14.177,14.177
	h177.217C352.434,443.07,358.786,436.718,358.786,428.892z"/>
<path style="fill:#31CCC9;" d="M367.831,28.355l0.014,111.292h-0.014h-206.11V28.355H367.831z M333.054,106.231v-44.46
	c0-7.826-6.337-14.177-14.177-14.177c-7.826,0-14.177,6.351-14.177,14.177v44.46c0,7.826,6.351,14.177,14.177,14.177
	C326.716,120.408,333.054,114.057,333.054,106.231z"/>
<g>
	<path style="fill:#201F2E;" d="M495.866,97.242L432.508,33.87c-5.359-5.359-12.476-8.308-20.047-8.308h-16.276V14.177
		C396.185,6.351,389.834,0,382.008,0H147.543c-7.826,0-14.177,6.351-14.177,14.177v11.384H36.181
		c-15.638,0-28.355,12.717-28.355,28.355v429.729C7.826,499.283,20.543,512,36.181,512h439.639
		c15.638,0,28.355-12.717,28.355-28.355V117.289C504.174,109.718,501.225,102.601,495.866,97.242z M475.819,483.645h-57.773h-310.2
		V305.21h296.306v123.683c0,7.727,6.195,14.021,13.894,14.177c0.085,0,0.184,0,0.284,0c7.826,0,14.177-6.351,14.177-14.177V305.21
		c0-15.638-12.717-28.355-28.355-28.355H107.847c-15.638,0-28.355,12.717-28.355,28.355v178.436H36.181V53.916h43.312v85.73
		c0,15.638,12.717,28.355,28.355,28.355h39.697h220.287c15.623,0,28.355-12.717,28.355-28.355v-85.73h16.276l63.358,63.373
		L475.819,483.645L475.819,483.645z M161.721,28.355h206.11l0.014,111.292h-0.014h-206.11V28.355z M107.847,139.647v-85.73h25.519
		v85.73H107.847z"/>
	<path style="fill:#201F2E;" d="M344.608,345.785H167.392c-7.826,0-14.177,6.351-14.177,14.177c0,7.826,6.351,14.177,14.177,14.177
		h177.217c7.826,0,14.177-6.351,14.177-14.177C358.786,352.136,352.434,345.785,344.608,345.785z"/>
	<path style="fill:#201F2E;" d="M344.608,414.715H167.392c-7.826,0-14.177,6.351-14.177,14.177s6.351,14.177,14.177,14.177h177.217
		c7.826,0,14.177-6.351,14.177-14.177S352.434,414.715,344.608,414.715z"/>
	<path style="fill:#201F2E;" d="M318.876,47.593c-7.826,0-14.177,6.351-14.177,14.177v44.46c0,7.826,6.351,14.177,14.177,14.177
		c7.84,0,14.177-6.351,14.177-14.177v-44.46C333.054,53.945,326.716,47.593,318.876,47.593z"/>
</g>
<rect x="107.847" y="53.916" style="fill:#E4F5F4;" width="25.519" height="85.73"/>
<g>
</g>
<g>
</g>
<g>
</g>
<g>
</g>
<g>
</g>
<g>
</g>
<g>
</g>
<g>
</g>
<g>
</g>
<g>
</g>
<g>
</g>
<g>
</g>
<g>
</g>
<g>
</g>
<g>
</g>
</svg>
