<?xml version="1.0" encoding="UTF-8" standalone="no"?>
<svg
   xmlns:osb="http://www.openswatchbook.org/uri/2009/osb"
   xmlns:dc="http://purl.org/dc/elements/1.1/"
   xmlns:cc="http://creativecommons.org/ns#"
   xmlns:rdf="http://www.w3.org/1999/02/22-rdf-syntax-ns#"
   xmlns:svg="http://www.w3.org/2000/svg"
   xmlns="http://www.w3.org/2000/svg"
   id="svg183"
   version="1.1"
   width="512pt"
   viewBox="-2 0 512 512"
   height="512pt">
  <metadata
     id="metadata189">
    <rdf:RDF>
      <cc:Work
         rdf:about="">
        <dc:format>image/svg+xml</dc:format>
        <dc:type
           rdf:resource="http://purl.org/dc/dcmitype/StillImage" />
        <dc:title></dc:title>
      </cc:Work>
    </rdf:RDF>
  </metadata>
  <defs
     id="defs187">
    <linearGradient
       osb:paint="solid"
       id="linearGradient6280">
      <stop
         id="stop6278"
         offset="0"
         style="stop-color:#000000;stop-opacity:1;" />
    </linearGradient>
  </defs>
  <path
     id="path4774"
     d="m 279.1211,23.890625 c 0,0 -13.11123,-35.900501 -102.23716,1.393325 C 87.758025,62.577776 11.274073,135.26913 8.7456787,267.37777 6.217284,399.48641 148.70576,507.8685 295.08641,499.35801 349.44691,496.19752 204.06419,452.5827 176.25185,401.3827 148.4395,350.18271 103.56049,262.95308 135.79753,169.40247 168.03457,75.851848 279.1211,23.890625 279.1211,23.890625 Z"
     style="fill:#ffffff;fill-opacity:1;stroke:none;stroke-width:0.75px;stroke-linecap:butt;stroke-linejoin:miter;stroke-opacity:1" />
  <path
     style="fill:#feb756;fill-opacity:1"
     id="path143"
     d="m 343.76953,159.30859 c -63.4375,8.15625 -109.32812,-51.51953 -68.11719,-103.769528 8.16016,-10.34375 8.875,-22.5 3.46875,-31.648437 -86.46093,31.46875 -153.96875,112.925785 -162.14843,207.871095 -7.27735,84.55859 26.78515,159.71875 83.16015,209.16797 31.22656,27.39062 69.29688,46.89062 110.98047,55.74218 226.94922,-45.5 258.55078,-366.40234 32.65625,-337.36328 z m 0,0" />
  <path
     id="path145"
     fill="#fff"
     d="m186.972656 245c-.820312 12.910156-7.890625 25.179688-19.929687 32.128906-19.128907 11.050782-89.28125 5.359375-89.28125 5.359375s30.152343-63.589843 49.28125-74.636719c12.300781-7.101562 26.800781-6.929687 38.53125-.8125 6.507812 3.390626 12.167969 8.621094 16.109375 15.449219 4.089844 7.089844 5.769531 14.910157 5.289062 22.511719zm0 0" />
  <path
     style=""
     fill="#fd3c65"
     id="path147"
     d="m148.90625 229.714844c-12.011719 6.933594-28.363281 34.578125-38.871094 54.195312 21.097656.289063 46.601563-.769531 57.007813-6.78125 12.039062-6.949218 19.109375-19.21875 19.929687-32.128906.375-5.898438-.574218-11.925781-2.921875-17.648438-11.058593-4.519531-24-4.070312-35.144531 2.363282zm0 0" />
  <path
     id="path149"
     fill="#4dbbeb"
     d="m155.972656 370.550781c0 16.566407-13.429687 30-30 30-16.566406 0-30-13.433593-30-30 0-16.570312 13.433594-30 30-30 16.570313 0 30 13.429688 30 30zm0 0" />
  <path
     id="path151"
     fill="#fff"
     d="m494.792969 42.199219c9.671875 16.742187-41.667969 65.011719-118.769531 113.820312-10.988282 6.960938-22.5 13.929688-34.429688 20.820313-20.21875 11.671875-40.03125 22.179687-58.808594 31.320312-3.082031-12.230468-7.890625-24.21875-14.5-35.671875-6.460937-11.1875-14.242187-21.148437-23.03125-29.796875 7.4375-5.03125 15.210938-10.101562 23.238282-15.160156 10.589843-6.679688 21.652343-13.359375 33.101562-19.972656 95.660156-55.230469 182.160156-84.488282 193.199219-65.359375zm0 0" />
  <path
     fill="#fd3c65"
     style=""
     id="path153"
     d="m276.214844 160.371094c-3.734375 2.351562-7.402344 4.703125-11.015625 7.054687 1.054687 1.664063 2.089843 3.34375 3.085937 5.0625 6.609375 11.453125 11.417969 23.441407 14.5 35.671875 18.777344-9.140625 38.589844-19.648437 58.808594-31.320312 11.929688-6.890625 23.441406-13.859375 34.429688-20.820313 50.722656-32.109375 90.289062-63.984375 108.679687-86.804687-32.121094.984375-100.980469 28.226562-175.390625 71.183594-11.449219 6.613281-22.507812 13.292968-33.097656 19.972656zm0 0" />
  <path
     id="path155"
     fill="#fff5cd"
     d="m455.972656 310.550781c0 16.566407-13.429687 30-30 30-16.566406 0-30-13.433593-30-30 0-16.570312 13.433594-30 30-30 16.570313 0 30 13.429688 30 30zm0 0" />
  <path
     id="path157"
     fill="#4dbbeb"
     d="m375.972656 410.550781c0 16.566407-13.429687 30-30 30-16.566406 0-30-13.433593-30-30 0-16.570312 13.433594-30 30-30 16.570313 0 30 13.429688 30 30zm0 0" />
  <path
     id="path159"
     fill="#fff5cd"
     d="m268.285156 172.488281c6.609375 11.453125 11.417969 23.441407 14.5 35.671875-37.851562 18.441406-71.5 31.289063-95.8125 36.839844.480469-7.601562-1.199218-15.421875-5.289062-22.511719-3.941406-6.828125-9.601563-12.058593-16.109375-15.449219 17.019531-18.257812 44.910156-40.890624 79.679687-64.347656 8.789063 8.648438 16.570313 18.609375 23.03125 29.796875zm0 0" />
  <path
     id="path161"
     fill="#fff5cd"
     d="m255.972656 430.550781c0 16.566407-13.429687 30-30 30-16.566406 0-30-13.433593-30-30 0-16.570312 13.433594-30 30-30 16.570313 0 30 13.429688 30 30zm0 0" />
  <path
     id="path163"
     fill="#fff"
     d="m175.972656 71.839844c16.570313 0 30 13.441406 30 30 0 16.570312-13.429687 30-30 30-16.570312 0-30-13.429688-30-30 0-16.558594 13.429688-30 30-30zm0 0" />
  <path
     id="path165"
     fill="#fff5cd"
     d="m163.554688 119.421875c0 3.699219.671874 7.242187 1.898437 10.515625 3.273437 1.226562 6.816406 1.902344 10.519531 1.902344 16.570313 0 30-13.429688 30-30 0-3.699219-.675781-7.246094-1.902344-10.519532-3.273437-1.226562-6.816406-1.898437-10.515624-1.898437-16.570313 0-30 13.4375-30 30zm0 0" />
  <path
     style="fill-opacity:1;stroke-opacity:1"
     id="path167"
     d="m 475.33203,188.87891 c -18.07031,-20.21485 -42.66797,-33.32813 -72.125,-38.67969 28.91797,-19.51172 53.85547,-38.93359 71.63672,-55.875001 27.10937,-25.832031 36.19922,-43.984375 28.60937,-57.125 -8.44531,-14.632813 -32.82421,-14.53125 -76.73046,0.324219 -37.09766,12.546874 -83.3125,34.34375 -130.12891,61.375 -8.05078,4.648442 -16.03125,9.410152 -23.83594,14.207032 -6.08984,-16.464845 -2.39062,-34.714845 10.75,-51.371095 9.60547,-12.179687 11.75,-27.652344 5.59766,-40.375 C 282.65625,8.019531 268.49609,0.0351562 251.21484,0 h -0.46875 C 189.73828,0 130.06641,24.070312 82.722656,67.777344 35.320312,111.53906 6.300781,169.47266 1.011719,230.90234 -6.191406,314.60156 25.347656,393.89453 87.539062,448.44922 134.25781,489.42969 194.08203,512 255.98438,512 c 38.5664,0 74.75781,-7.08984 107.56249,-21.07422 29.98047,-12.78125 56.57422,-31.02344 79.03907,-54.21875 20.82812,-21.50391 37.1914,-46.23437 48.64062,-73.50391 10.89844,-25.96093 16.73438,-53.42187 16.88281,-79.40234 0.21094,-37.87109 -11.12109,-70.69531 -32.77734,-94.92187 z M 306.59375,116.21875 c 43.28516,-24.992188 86.39062,-45.574219 121.375,-57.960938 38.50781,-13.636718 54.27734,-12.746093 57.95312,-10.988281 -0.32031,2.328125 -3.21093,12.679688 -28.48046,35.953125 -21.10157,19.433594 -51.91797,42.285154 -86.76954,64.347654 -11.01562,6.98047 -22.48046,13.91406 -34.07812,20.60938 -15.98438,9.22656 -31.95703,17.85156 -47.63281,25.75 -3.12891,-9.12891 -7.13672,-17.98828 -12.01563,-26.4375 -4.73047,-8.19141 -10.21484,-15.88282 -16.34765,-22.9961 4.33984,-2.84375 8.7539,-5.6875 13.23046,-8.50781 10.58204,-6.67578 21.60547,-13.32812 32.76563,-19.76953 z M 196.00391,232.32422 c -1.07813,-5.17188 -2.97266,-10.17188 -5.66016,-14.83203 -2.54688,-4.41407 -5.74219,-8.35938 -9.43359,-11.76563 15.48828,-14.94922 37.29296,-32.26953 62.96484,-49.98828 5.96094,6.66016 11.24219,13.94922 15.75,21.75 4.65625,8.07031 8.40625,16.55859 11.21484,25.3125 -28.23437,13.39063 -54.14453,23.60156 -74.83593,29.52344 z m -35.05079,-16.41406 c 5.03907,2.62109 9.21094,6.625 12.06641,11.57812 2.97266,5.14844 4.34766,10.98828 3.97266,16.88281 -0.64063,10.05469 -6.22657,19.0625 -14.94922,24.10157 -9.45703,5.46093 -41.94531,6.19922 -68.621095,4.97656 12.273435,-23.70313 29.152345,-51.46875 38.621095,-56.9375 8.9375,-5.16016 19.74219,-5.38672 28.91015,-0.60156 z M 255.98437,492 C 198.93359,492 143.79687,471.19141 100.72656,433.41406 43.367188,383.09766 14.285156,309.91016 20.9375,232.61719 31.035156,115.37891 134.125,20 250.74219,20 h 0.44922 c 9.5664,0.01953 16.82421,3.6875 19.90625,10.066406 2.83593,5.859375 1.60547,13.070313 -3.29688,19.28125 -18.5,23.457032 -22.78125,50.679684 -12.22265,74.558594 -5.41016,3.48438 -10.72266,6.98437 -15.85938,10.45312 -0.0234,0.0156 -0.0469,0.0312 -0.0703,0.0469 -31.79688,21.45703 -58.64844,42.80078 -76.51563,60.76172 -13.55078,-4.63281 -28.4375,-3.28125 -41.09375,4.02344 -20.77343,12 -48.054685,67.92578 -53.312498,79.01562 -1.40625,2.96875 -1.265624,6.4375 0.375,9.28125 1.644532,2.84766 4.578126,4.70313 7.851563,4.96875 5.527344,0.44922 21.222656,1.58203 38.691405,1.58203 21.19922,0 45.00781,-1.66797 56.39844,-8.25 12.33594,-7.12109 20.88672,-19.01953 23.85156,-32.69922 24.52344,-6.4375 56.5625,-19.03125 91.26563,-35.9375 19.4414,-9.46484 39.4375,-20.11328 59.43359,-31.65234 10.13281,-5.85156 20.15234,-11.88672 29.89062,-17.97266 82.69141,2.25782 111.9336,61.23438 111.6211,116.16016 C 487.54297,383.86719 398.63672,492 255.98437,492 Z m 0,0" />
  <path
     style="fill:#000000;fill-opacity:1"
     id="path169"
     d="m346.117188 290.203125c.808593-5.460937-2.964844-10.546875-8.429688-11.355469-5.457031-.8125-10.546875 2.964844-11.355469 8.425782-2.734375 18.457031-18.332031 33.761718-41.730469 40.945312-25.007812 7.679688-59.71875 5.105469-80.890624-17.953125-3.738282-4.066406-10.0625-4.335937-14.128907-.601563-4.070312 3.734376-4.339843 10.0625-.605469 14.128907 12.257813 13.347656 28.910157 22.445312 48.148438 26.308593 6.792969 1.367188 13.84375 2.042969 20.9375 2.042969 10.957031 0 22.023438-1.617187 32.410156-4.804687 30.953125-9.503906 51.753906-30.863282 55.644532-57.136719zm0 0" />
  <path
     style="fill:#000000;fill-opacity:1"
     id="path171"
     d="m175.972656 141.839844c22.054688 0 40-17.945313 40-40 0-22.054688-17.945312-40-40-40-22.054687 0-40 17.945312-40 40 0 22.054687 17.945313 40 40 40zm0-60c11.027344 0 20 8.972656 20 20s-8.972656 20-20 20-20-8.972656-20-20 8.972656-20 20-20zm0 0" />
  <path
     style="fill:#000000;fill-opacity:1"
     id="path173"
     d="m125.972656 330.550781c-22.054687 0-40 17.941407-40 40 0 22.054688 17.945313 40 40 40 22.054688 0 40-17.945312 40-40 0-22.058593-17.941406-40-40-40zm0 60c-11.027344 0-20-8.972656-20-20 0-11.027343 8.972656-20 20-20s20 8.972657 20 20c0 11.027344-8.972656 20-20 20zm0 0" />
  <path
     style="fill:#000000;fill-opacity:1"
     id="path175"
     d="m225.972656 390.550781c-22.054687 0-40 17.941407-40 40 0 22.054688 17.945313 40 40 40 22.054688 0 40-17.945312 40-40 0-22.058593-17.941406-40-40-40zm0 60c-11.027344 0-20-8.972656-20-20 0-11.027343 8.972656-20 20-20s20 8.972657 20 20c0 11.027344-8.972656 20-20 20zm0 0" />
  <path
     style="fill:#000000;fill-opacity:1"
     id="path177"
     d="m345.972656 370.550781c-22.054687 0-40 17.941407-40 40 0 22.054688 17.945313 40 40 40 22.054688 0 40-17.945312 40-40 0-22.058593-17.941406-40-40-40zm0 60c-11.027344 0-20-8.972656-20-20 0-11.027343 8.972656-20 20-20s20 8.972657 20 20c0 11.027344-8.972656 20-20 20zm0 0" />
  <path
     style="fill:#000000;fill-opacity:1"
     id="path179"
     d="m425.972656 270.550781c-22.054687 0-40 17.941407-40 40 0 22.054688 17.945313 40 40 40 22.054688 0 40-17.945312 40-40 0-22.058593-17.941406-40-40-40zm0 60c-11.027344 0-20-8.972656-20-20 0-11.027343 8.972656-20 20-20s20 8.972657 20 20c0 11.027344-8.972656 20-20 20zm0 0" />
  <path
     style="fill:#000000;fill-opacity:1"
     id="path181"
     d="m345.972656 236c0 5.523438-4.476562 10-10 10-5.523437 0-10-4.476562-10-10s4.476563-10 10-10c5.523438 0 10 4.476562 10 10zm0 0" />
</svg>
