<?xml version="1.0" encoding="UTF-8" standalone="no"?>
<svg
   xmlns:dc="http://purl.org/dc/elements/1.1/"
   xmlns:cc="http://creativecommons.org/ns#"
   xmlns:rdf="http://www.w3.org/1999/02/22-rdf-syntax-ns#"
   xmlns:svg="http://www.w3.org/2000/svg"
   xmlns="http://www.w3.org/2000/svg"
   xml:space="preserve"
   style="enable-background:new 0 0 53.943 53.943;"
   viewBox="0 0 53.943 53.943"
   y="0px"
   x="0px"
   id="Capa_1"
   version="1.1"><metadata
   id="metadata984"><rdf:RDF><cc:Work
       rdf:about=""><dc:format>image/svg+xml</dc:format><dc:type
         rdf:resource="http://purl.org/dc/dcmitype/StillImage" /><dc:title></dc:title></cc:Work></rdf:RDF></metadata><defs
   id="defs982" />
<g
   id="g947">
	<path
   id="path943"
   d="m 52.48,41.376 c -1.898,-3.587 -8.899,-7.69 -8.899,-7.69 -1.584,-0.903 -3.495,-1.004 -4.399,0.606 0,0 -2.274,2.728 -2.853,3.12 -2.643,1.791 -5.091,1.722 -7.562,-0.75 l -5.743,-5.743 -5.743,-5.743 c -2.472,-2.472 -2.541,-4.919 -0.75,-7.562 0.392,-0.579 3.12,-2.853 3.12,-2.853 1.609,-0.904 1.509,-2.815 0.606,-4.399 0,0 -4.103,-7.001 -7.69,-8.899 C 11.041,0.655 9.167,0.937 7.946,2.158 L 5.408,4.693 c -8.045,8.045 -4.084,17.129 3.961,25.174 l 7.353,7.353 7.353,7.353 c 8.045,8.045 17.129,12.007 25.174,3.961 l 2.537,-2.537 c 1.22,-1.221 1.502,-3.096 0.694,-4.621 z"
   style="fill:#00cec9" />
	<path
   id="path945"
   d="m 53.364,40.908 c -2.008,-3.796 -8.981,-7.912 -9.287,-8.092 -0.896,-0.51 -1.831,-0.78 -2.706,-0.78 -1.301,0 -2.366,0.596 -3.011,1.68 -1.02,1.22 -2.286,2.646 -2.592,2.867 -2.376,1.612 -4.237,1.429 -6.294,-0.629 L 17.987,24.467 c -2.044,-2.045 -2.232,-3.928 -0.632,-6.29 0.224,-0.31 1.65,-1.575 2.871,-2.597 0.778,-0.463 1.312,-1.15 1.545,-1.995 0.312,-1.122 0.082,-2.444 -0.652,-3.731 C 20.946,9.558 16.829,2.584 13.034,0.577 12.326,0.202 11.528,0.004 10.728,0.004 9.41,0.004 8.17,0.518 7.239,1.449 L 4.7,3.986 c -4.014,4.013 -5.467,8.562 -4.321,13.52 0.956,4.132 3.742,8.529 8.282,13.068 l 14.705,14.705 c 5.746,5.746 11.224,8.66 16.282,8.66 0,0 0,0 0,0 3.721,0 7.188,-1.581 10.306,-4.698 l 2.537,-2.537 c 1.542,-1.54 1.892,-3.869 0.873,-5.796 z m -2.286,4.382 -2.537,2.537 c -2.729,2.729 -5.72,4.112 -8.891,4.112 0,0 0,0 -10e-4,0 -4.509,0 -9.511,-2.717 -14.868,-8.074 L 10.076,29.16 C 5.805,24.889 3.198,20.816 2.328,17.055 1.334,12.754 2.572,8.942 6.114,5.4 L 8.651,2.863 c 0.554,-0.554 1.291,-0.859 2.075,-0.859 0.476,0 0.949,0.118 1.371,0.341 3.294,1.743 7.256,8.454 7.29,8.511 0.449,0.787 0.62,1.608 0.457,2.196 -0.1,0.36 -0.323,0.633 -0.683,0.835 l -0.151,0.104 c -0.853,0.711 -2.882,2.433 -3.308,3.061 -0.612,0.904 -1.018,1.793 -1.23,2.666 -0.711,-1.418 -1.286,-3.061 -1.475,-4.881 -0.057,-0.548 -0.546,-0.931 -1.098,-0.892 -0.549,0.058 -0.949,0.549 -0.892,1.099 0.722,6.953 6.129,11.479 6.359,11.668 0.025,0.021 0.056,0.029 0.082,0.047 l 10.611,10.61 c 0.044,0.044 0.09,0.083 0.134,0.126 0.036,0.053 0.059,0.111 0.106,0.157 0.189,0.187 4.704,4.567 11.599,5.283 0.035,0.003 0.07,0.005 0.104,0.005 0.506,0 0.94,-0.383 0.994,-0.896 0.057,-0.55 -0.342,-1.041 -0.892,-1.099 -2.112,-0.219 -3.983,-0.838 -5.543,-1.556 0.762,-0.231 1.538,-0.614 2.328,-1.149 0.628,-0.425 2.35,-2.455 3.061,-3.308 l 0.104,-0.151 c 0.281,-0.5 0.712,-0.744 1.317,-0.744 0.52,0 1.129,0.185 1.705,0.512 1.879,1.102 7.072,4.559 8.521,7.296 0.605,1.144 0.397,2.529 -0.519,3.445 z"
   style="fill:#009e99" />
</g>
<g
   id="g949">
</g>
<g
   id="g951">
</g>
<g
   id="g953">
</g>
<g
   id="g955">
</g>
<g
   id="g957">
</g>
<g
   id="g959">
</g>
<g
   id="g961">
</g>
<g
   id="g963">
</g>
<g
   id="g965">
</g>
<g
   id="g967">
</g>
<g
   id="g969">
</g>
<g
   id="g971">
</g>
<g
   id="g973">
</g>
<g
   id="g975">
</g>
<g
   id="g977">
</g>
</svg>