<?xml version="1.0" encoding="UTF-8" standalone="no"?>
<svg
   xmlns:dc="http://purl.org/dc/elements/1.1/"
   xmlns:cc="http://creativecommons.org/ns#"
   xmlns:rdf="http://www.w3.org/1999/02/22-rdf-syntax-ns#"
   xmlns:svg="http://www.w3.org/2000/svg"
   xmlns="http://www.w3.org/2000/svg"
   xml:space="preserve"
   style="enable-background:new 0 0 61.5 61.5;"
   viewBox="0 0 61.5 61.5"
   y="0px"
   x="0px"
   id="Capa_1"
   version="1.1"><metadata
   id="metadata3882"><rdf:RDF><cc:Work
       rdf:about=""><dc:format>image/svg+xml</dc:format><dc:type
         rdf:resource="http://purl.org/dc/dcmitype/StillImage" /><dc:title></dc:title></cc:Work></rdf:RDF></metadata><defs
   id="defs3880" />
<g
   transform="matrix(-1,0,0,1,61.500247,0)"
   id="g3845">
	<g
   id="group-30svg">
		<path
   d="m 33.648,58.623 c -0.828,0 -1.5,-0.672 -1.5,-1.501 0,-0.828 0.672,-1.501 1.5,-1.501 1.576,0 3.153,-0.148 4.687,-0.441 0.807,-0.155 1.599,0.378 1.755,1.193 0.155,0.815 -0.379,1.6 -1.192,1.756 -1.72,0.328 -3.486,0.494 -5.25,0.494 z m 9.759,-1.867 c -0.595,0 -1.159,-0.357 -1.393,-0.945 -0.307,-0.77 0.068,-1.643 0.838,-1.95 1.455,-0.581 2.863,-1.306 4.185,-2.154 0.699,-0.447 1.626,-0.244 2.073,0.454 0.447,0.698 0.244,1.626 -0.454,2.074 -1.482,0.95 -3.061,1.762 -4.693,2.414 -0.182,0.073 -0.37,0.107 -0.556,0.107 z m 8.369,-5.364 c -0.397,0 -0.793,-0.157 -1.088,-0.468 -0.571,-0.602 -0.546,-1.552 0.055,-2.123 1.138,-1.079 2.18,-2.274 3.098,-3.55 0.484,-0.674 1.423,-0.826 2.094,-0.342 0.673,0.484 0.825,1.422 0.342,2.095 -1.028,1.429 -2.195,2.766 -3.469,3.976 -0.29,0.275 -0.661,0.412 -1.032,0.412 z m 5.799,-8.076 c -0.211,0 -0.424,-0.045 -0.629,-0.14 -0.751,-0.348 -1.079,-1.24 -0.731,-1.992 0.658,-1.423 1.183,-2.918 1.561,-4.443 0.199,-0.804 1.007,-1.296 1.817,-1.096 0.804,0.2 1.294,1.014 1.095,1.818 -0.424,1.71 -1.013,3.386 -1.75,4.981 -0.254,0.549 -0.796,0.872 -1.363,0.872 z m 2.388,-9.653 c -0.026,0 -0.053,0 -0.079,-0.002 -0.827,-0.043 -1.463,-0.749 -1.42,-1.577 0.024,-0.443 0.035,-0.901 0.036,-1.35 0.002,-0.828 0.673,-1.511 1.5,-1.511 10e-4,0 0.002,0 0.003,0 0.828,0 1.499,0.689 1.497,1.517 -10e-4,0.499 -0.014,1.002 -0.04,1.494 -0.042,0.801 -0.704,1.429 -1.497,1.429 z"
   style="fill:#81bda4"
   id="path-1_23_" />
		<path
   d="m 60,32.252 c -0.828,0 -1.5,-0.673 -1.5,-1.501 0,-13.714 -11.148,-24.872 -24.852,-24.872 -12.4,0 -22.99,9.259 -24.633,21.537 -0.11,0.822 -0.866,1.398 -1.686,1.288 C 6.508,28.594 5.932,27.839 6.042,27.017 7.884,13.255 19.751,2.877 33.648,2.877 c 15.358,0 27.852,12.504 27.852,27.874 0,0.828 -0.672,1.501 -1.5,1.501 z"
   style="fill:#e56a77"
   id="path-2_23_" />
		<path
   d="M 6.881,21.384 2.212,19.895 c -1.106,-0.353 -2.287,0.531 -2.208,1.689 0.019,0.276 0.082,0.589 0.217,0.851 l 4.253,8.231 c 0.427,0.827 1.445,1.146 2.271,0.719 l 8.231,-4.264 c 0.261,-0.135 0.488,-0.337 0.663,-0.551 0.734,-0.9 0.281,-2.305 -0.824,-2.657 l -4.92,-1.569 z"
   style="fill:#e56a77"
   id="path-3_22_" />
	</g>
</g>
<g
   id="g3847">
</g>
<g
   id="g3849">
</g>
<g
   id="g3851">
</g>
<g
   id="g3853">
</g>
<g
   id="g3855">
</g>
<g
   id="g3857">
</g>
<g
   id="g3859">
</g>
<g
   id="g3861">
</g>
<g
   id="g3863">
</g>
<g
   id="g3865">
</g>
<g
   id="g3867">
</g>
<g
   id="g3869">
</g>
<g
   id="g3871">
</g>
<g
   id="g3873">
</g>
<g
   id="g3875">
</g>
</svg>