<svg height="480pt" viewBox="0 -16 480 480" width="480pt" xmlns="http://www.w3.org/2000/svg"><path d="m424 48h-48v-8c-.027344-22.082031-17.917969-39.9726562-40-40h-32c-22.082031.0273438-39.972656 17.917969-40 40v8h-36.6875l-45.65625-45.65625c-.683594-.667969-1.480469-1.210938-2.351562-1.601562-.234376-.101563-.472657-.167969-.710938-.253907-.851562-.230469-1.71875-.3906248-2.59375-.488281h-152c-13.253906 0-24 10.746094-24 24v272c0 13.253906 10.746094 24 24 24h136v72c.035156 30.914062 25.085938 55.964844 56 56h208c30.910156-.039062 55.960938-25.089844 56-56v-288c-.039062-30.910156-25.089844-55.960938-56-56zm-144 40v-48c0-13.253906 10.746094-24 24-24h32c13.253906 0 24 10.746094 24 24v48c0 4.417969 3.582031 8 8 8 18.992188.050781 35.347656 13.402344 39.199219 32h-151.199219v-28.617188c5.035156-2.246093 10.488281-3.398437 16-3.382812 4.417969 0 8-3.582031 8-8zm-16-24v16.566406c-2.707031.414063-5.382812 1.023438-8 1.824219v-2.390625c-.105469-.867188-.277344-1.726562-.511719-2.566406-.074219-.253906-.164062-.503906-.265625-.746094-.386718-.871094-.929687-1.664062-1.597656-2.34375l-10.3125-10.34375zm-35.3125 8h-36.6875c-4.417969 0-8-3.582031-8-8v-36.6875zm-212.6875 224v-272c0-4.417969 3.582031-8 8-8h144v48c0 13.253906 10.746094 24 24 24h48v208c0 4.417969-3.582031 8-8 8h-208c-4.417969 0-8-3.582031-8-8zm448 96c-.027344 22.082031-17.917969 39.972656-40 40h-208c-22.082031-.027344-39.972656-17.917969-40-40v-72h56c13.253906 0 24-10.746094 24-24v-152h160c4.417969 0 8-3.582031 8-8-.046875-27.824219-20.46875-51.410156-48-55.441406v-16.558594h48c22.082031.027344 39.972656 17.917969 40 40zm0 0"/><path d="m320 80c13.253906 0 24-10.746094 24-24s-10.746094-24-24-24-24 10.746094-24 24 10.746094 24 24 24zm0-32c4.417969 0 8 3.582031 8 8s-3.582031 8-8 8-8-3.582031-8-8 3.582031-8 8-8zm0 0"/><path d="m424 192h-128c-13.253906 0-24 10.746094-24 24v120c.105469.867188.277344 1.726562.511719 2.566406.074219.253906.164062.503906.265625.746094.386718.871094.925781 1.664062 1.597656 2.34375l56 56c.746094.746094 1.632812 1.335938 2.609375 1.734375.957031.398437 1.980469.605469 3.015625.609375h88c13.253906 0 24-10.746094 24-24v-160c0-13.253906-10.746094-24-24-24zm-124.6875 152h20.6875c4.417969 0 8 3.582031 8 8v20.6875zm132.6875 32c0 4.417969-3.582031 8-8 8h-80v-32c0-13.253906-10.746094-24-24-24h-32v-112c0-4.417969 3.582031-8 8-8h128c4.417969 0 8 3.582031 8 8zm0 0"/><path d="m48 48h16v16h-16zm0 0"/><path d="m80 48h32v16h-32zm0 0"/><path d="m48 80h64v16h-64zm0 0"/><path d="m48 128h32v16h-32zm0 0"/><path d="m96 128h112v16h-112zm0 0"/><path d="m48 176h160v16h-160zm0 0"/><path d="m48 224h160v16h-160zm0 0"/><path d="m312 232h32v16h-32zm0 0"/><path d="m360 232h48v16h-48zm0 0"/><path d="m312 264h96v16h-96zm0 0"/><path d="m312 296h96v16h-96zm0 0"/></svg>