<?xml version="1.0" encoding="iso-8859-1"?>
<!-- Generator: Adobe Illustrator 19.1.0, SVG Export Plug-In . SVG Version: 6.00 Build 0)  -->
<svg version="1.1" id="Capa_1" xmlns="http://www.w3.org/2000/svg" xmlns:xlink="http://www.w3.org/1999/xlink" x="0px" y="0px"
	 viewBox="0 0 61.5 61.5" style="enable-background:new 0 0 61.5 61.5;" xml:space="preserve">
<g>
	<g id="group-30svg">
		<path id="path-1_23_" style="fill:#81BDA4;" d="M33.648,58.623c-0.828,0-1.5-0.672-1.5-1.501c0-0.828,0.672-1.501,1.5-1.501
			c1.576,0,3.153-0.148,4.687-0.441c0.807-0.155,1.599,0.378,1.755,1.193c0.155,0.815-0.379,1.6-1.192,1.756
			C37.178,58.457,35.412,58.623,33.648,58.623z M43.407,56.756c-0.595,0-1.159-0.357-1.393-0.945
			c-0.307-0.77,0.068-1.643,0.838-1.95c1.455-0.581,2.863-1.306,4.185-2.154c0.699-0.447,1.626-0.244,2.073,0.454
			c0.447,0.698,0.244,1.626-0.454,2.074c-1.482,0.95-3.061,1.762-4.693,2.414C43.781,56.722,43.593,56.756,43.407,56.756z
			 M51.776,51.392c-0.397,0-0.793-0.157-1.088-0.468c-0.571-0.602-0.546-1.552,0.055-2.123c1.138-1.079,2.18-2.274,3.098-3.55
			c0.484-0.674,1.423-0.826,2.094-0.342c0.673,0.484,0.825,1.422,0.342,2.095c-1.028,1.429-2.195,2.766-3.469,3.976
			C52.518,51.255,52.147,51.392,51.776,51.392z M57.575,43.316c-0.211,0-0.424-0.045-0.629-0.14
			c-0.751-0.348-1.079-1.24-0.731-1.992c0.658-1.423,1.183-2.918,1.561-4.443c0.199-0.804,1.007-1.296,1.817-1.096
			c0.804,0.2,1.294,1.014,1.095,1.818c-0.424,1.71-1.013,3.386-1.75,4.981C58.684,42.993,58.142,43.316,57.575,43.316z
			 M59.963,33.663c-0.026,0-0.053,0-0.079-0.002c-0.827-0.043-1.463-0.749-1.42-1.577c0.024-0.443,0.035-0.901,0.036-1.35
			c0.002-0.828,0.673-1.511,1.5-1.511c0.001,0,0.002,0,0.003,0c0.828,0,1.499,0.689,1.497,1.517
			c-0.001,0.499-0.014,1.002-0.04,1.494C61.418,33.035,60.756,33.663,59.963,33.663z"/>
		<path id="path-2_23_" style="fill:#E56A77;" d="M60,32.252c-0.828,0-1.5-0.673-1.5-1.501c0-13.714-11.148-24.872-24.852-24.872
			c-12.4,0-22.99,9.259-24.633,21.537c-0.11,0.822-0.866,1.398-1.686,1.288c-0.821-0.11-1.397-0.865-1.287-1.687
			c1.842-13.762,13.709-24.14,27.606-24.14c15.358,0,27.852,12.504,27.852,27.874C61.5,31.579,60.828,32.252,60,32.252z"/>
		<path id="path-3_22_" style="fill:#E56A77;" d="M6.881,21.384l-4.669-1.489c-1.106-0.353-2.287,0.531-2.208,1.689
			c0.019,0.276,0.082,0.589,0.217,0.851l4.253,8.231c0.427,0.827,1.445,1.146,2.271,0.719l8.231-4.264
			c0.261-0.135,0.488-0.337,0.663-0.551c0.734-0.9,0.281-2.305-0.824-2.657l-4.92-1.569L6.881,21.384z"/>
	</g>
</g>
<g>
</g>
<g>
</g>
<g>
</g>
<g>
</g>
<g>
</g>
<g>
</g>
<g>
</g>
<g>
</g>
<g>
</g>
<g>
</g>
<g>
</g>
<g>
</g>
<g>
</g>
<g>
</g>
<g>
</g>
</svg>
