<svg height="512pt" viewBox="0 0 512 512.001" width="512pt" xmlns="http://www.w3.org/2000/svg"><path d="m307.75 181.613281c-20.855469 51.496094-47.820312 101.816407-80.78125 144.320313l53.542969 132.066406h54.472656l53.542969-132.066406c-32.964844-42.503906-59.925782-92.824219-80.777344-144.320313zm0 0" fill="#f0f0fb"/><g fill-rule="evenodd"><path d="m349.058594 477.570312c0-13.4375-8.085938-24.433593-17.96875-24.433593h-80.179688c-9.882812 0-17.96875 10.996093-17.96875 24.433593s8.085938 24.429688 17.96875 24.429688h80.179688c9.882812 0 17.96875-10.992188 17.96875-24.429688zm0 0" fill="#6fc"/><path d="m254 10h25.265625v46.527344h-25.265625zm0 0" fill="#fd4a4a"/><path d="m477.332031 10h24.667969v46.527344h-24.667969zm0 0" fill="#ffce34"/><path d="m31.753906 10h24.773438v46.527344h-24.773438zm0 0" fill="#ffce34"/><path d="m98.484375 172.878906c-10.441406 4.773438-17.730469 15.3125-17.730469 27.507813 0 12.199219 7.289063 22.738281 17.730469 27.515625 10.4375-4.777344 17.726563-15.316406 17.726563-27.515625 0-12.195313-7.289063-22.734375-17.726563-27.507813zm0 0" fill="#bfbfcf"/><path d="m438.539062 172.878906c-10.4375 4.773438-17.726562 15.3125-17.726562 27.507813 0 12.199219 7.289062 22.738281 17.726562 27.515625 10.441407-4.777344 17.730469-15.316406 17.730469-27.515625 0-12.195313-7.289062-22.734375-17.730469-27.507813zm0 0" fill="#bfbfcf"/></g><path d="m288.992188 95.660156c-1.207032-4.316406-5.144532-7.304687-9.628907-7.304687h-46.726562c-4.484375 0-8.421875 2.984375-9.628907 7.304687-24.179687 86.386719-62.335937 165.988282-107.4375 224.148438-2.183593 2.8125-2.703124 6.582031-1.363281 9.882812l49.109375 121.140625c-6.324218 6.316407-10.375 15.953125-10.375 26.738281 0 18.984376 12.546875 34.429688 27.96875 34.429688h150.179688c15.421875 0 27.96875-15.445312 27.96875-34.429688 0-10.78125-4.050782-20.421874-10.375-26.738281l49.109375-121.140625c1.339843-3.300781.820312-7.066406-1.363281-9.882812-45.097657-58.15625-83.253907-137.761719-107.4375-224.148438zm-32.992188 217.304688c8.4375 0 15.300781 6.863281 15.300781 15.300781s-6.863281 15.300781-15.300781 15.300781c-8.433594 0-15.300781-6.863281-15.300781-15.300781s6.867187-15.300781 15.300781-15.300781zm75.089844 179.035156h-150.179688c-3.246094 0-7.96875-5.621094-7.96875-14.429688 0-3.96875.960938-7.28125 2.3125-9.734374.574219.105468 1.164063.164062 1.765625.164062h157.964844c.601563 0 1.1875-.058594 1.765625-.160156 1.347656 2.449218 2.308594 5.761718 2.308594 9.730468 0 8.808594-4.71875 14.429688-7.96875 14.429688zm-.871094-48.859375h-148.4375l-46.890625-115.667969c43.839844-58.019531 80.992187-135.339844 105.296875-219.113281h5.8125v186.054687c-14.605469 4.324219-25.300781 17.859376-25.300781 33.851563 0 19.464844 15.835937 35.300781 35.300781 35.300781s35.300781-15.835937 35.300781-35.300781c0-15.992187-10.691406-29.523437-25.300781-33.851563v-186.058593h5.8125c24.308594 83.777343 61.460938 161.101562 105.296875 219.117187zm0 0"/><path d="m502 0h-46.527344c-5.523437 0-10 4.476562-10 10v13.265625h-6.207031c-5.523437 0-10 4.476563-10 10 0 5.519531 4.476563 10 10 10h6.207031v13.261719c0 5.523437 4.476563 10 10 10h46.527344c5.523438 0 10-4.476563 10-10v-46.527344c0-5.523438-4.476562-10-10-10zm-10 46.527344h-26.527344v-26.527344h26.527344zm0 0"/><path d="m66.527344 56.527344v-13.261719h10c5.523437 0 10-4.480469 10-10 0-5.523437-4.476563-10-10-10h-10v-13.265625c0-5.523438-4.476563-10-10-10h-46.527344c-5.523438 0-10 4.476562-10 10v46.527344c0 5.519531 4.476562 10 10 10h46.527344c5.523437 0 10-4.476563 10-10zm-19.996094-10h-26.53125v-26.527344h26.53125zm0 0"/><path d="m432.429688 160.664062c-31.027344-59.617187-83.761719-99.972656-143.164063-111.050781v-6.351562h10c5.523437 0 10-4.476563 10-10 0-5.519531-4.476563-10-10-10h-10v-13.261719c0-5.523438-4.476563-10-10-10h-46.527344c-5.523437 0-10 4.476562-10 10v13.265625h-6.207031c-5.523438 0-10 4.476563-10 10 0 5.519531 4.476562 10 10 10h6.207031v6.347656c-59.40625 11.078125-112.140625 51.433594-143.167969 111.050781-19.15625 3.078126-33.839843 19.714844-33.839843 39.722657 0 22.1875 18.054687 40.242187 40.242187 40.242187s40.238282-18.054687 40.238282-40.242187c0-16.871094-10.441407-31.339844-25.199219-37.308594 33.914062-59.875 92.269531-96.550781 154.988281-96.550781s121.070312 36.675781 154.984375 96.550781c-14.753906 5.96875-25.195313 20.4375-25.195313 37.308594 0 22.1875 18.050782 40.242187 40.238282 40.242187s40.238281-18.054687 40.238281-40.242187c.003906-20.007813-14.679687-36.644531-33.835937-39.722657zm-346.457032 59.964844c-11.160156 0-20.238281-9.082031-20.238281-20.242187 0-11.15625 9.078125-20.238281 20.238281-20.238281s20.238282 9.082031 20.238282 20.238281c0 11.160156-9.078126 20.242187-20.238282 20.242187zm156.761719-174.101562v-26.527344h26.53125v26.527344zm183.296875 174.101562c-11.160156 0-20.242188-9.082031-20.242188-20.242187 0-11.148438 9.066407-20.21875 20.210938-20.234375h.039062.03125c11.140626.023437 20.199219 9.089844 20.199219 20.234375 0 11.160156-9.082031 20.242187-20.238281 20.242187zm0 0"/><path d="m359.265625 43.265625h20c5.523437 0 10-4.480469 10-10 0-5.523437-4.476563-10-10-10h-20c-5.523437 0-10 4.476563-10 10 0 5.519531 4.476563 10 10 10zm0 0"/><path d="m136.527344 43.265625h20.003906c5.519531 0 10-4.480469 10-10 0-5.523437-4.480469-10-10-10h-20.003906c-5.519532 0-10 4.476563-10 10 0 5.519531 4.480468 10 10 10zm0 0"/><path d="m300.105469 419.378906h.476562c5.523438 0 10-4.476562 10-10 0-5.519531-4.476562-10-10-10h-.476562c-5.519531 0-10 4.480469-10 10 0 5.523438 4.480469 10 10 10zm0 0"/><path d="m271.023438 399.378906h-59.605469c-5.519531 0-10 4.480469-10 10 0 5.523438 4.480469 10 10 10h59.605469c5.523437 0 10-4.476562 10-10 0-5.523437-4.476563-10-10-10zm0 0"/></svg>