<?xml version="1.0" encoding="iso-8859-1"?>
<!-- Generator: Adobe Illustrator 21.0.0, SVG Export Plug-In . SVG Version: 6.00 Build 0)  -->
<svg xmlns="http://www.w3.org/2000/svg" xmlns:xlink="http://www.w3.org/1999/xlink" version="1.1" id="Capa_1" x="0px" y="0px" viewBox="0 0 511.968 511.968" style="enable-background:new 0 0 511.968 511.968;" xml:space="preserve" width="512" height="512">
<g>
	<path style="fill:#3E5959;" d="M498.813,435.178L352.282,288.647c-5.859-5.859-15.352-5.859-21.211,0l-42.422,42.422   c-5.859,5.859-5.859,15.352,0,21.211l146.531,146.531c17.499,17.528,46.033,17.556,63.647,0   C516.348,481.248,516.348,452.713,498.813,435.178z"/>
	<path style="fill:#537983;" d="M195.002,0c-107.401,0-195,87.599-195,195c0,107.399,87.599,195,195,195s195-87.601,195-195   C390.002,87.599,302.403,0,195.002,0z"/>
	<path style="fill:#3E5959;" d="M390.002,195c0,107.399-87.599,195-195,195V0C302.403,0,390.002,87.599,390.002,195z"/>
	<path style="fill:#DEECF1;" d="M195.002,360c-90.981,0-165-74.019-165-165s74.019-165,165-165s165,74.019,165,165   S285.983,360,195.002,360z"/>
	<path style="fill:#C5D3DD;" d="M360.002,195c0-90.981-74.019-165-165-165v330C285.983,360,360.002,285.981,360.002,195z"/>
	<path style="fill:#7FE881;" d="M195.002,60c-74.399,0-135,60.599-135,135c0,74.399,60.601,135,135,135s135-60.601,135-135   C330.002,120.599,269.401,60,195.002,60z"/>
	<path style="fill:#5BC980;" d="M330.002,195c0,74.399-60.601,135-135,135V60C269.401,60,330.002,120.599,330.002,195z"/>
	<path style="fill:#537983;" d="M270.002,195c0,8.399-6.599,15-15,15h-45v45c0,8.399-6.599,15-15,15s-15-6.601-15-15v-45h-45   c-8.401,0-15-6.601-15-15c0-8.401,6.599-15,15-15h45v-45c0-8.401,6.599-15,15-15s15,6.599,15,15v45h45   C263.403,180,270.002,186.599,270.002,195z"/>
	<path style="fill:#3E5959;" d="M270.002,195c0,8.399-6.599,15-15,15h-45v45c0,8.399-6.599,15-15,15V120c8.401,0,15,6.599,15,15v45   h45C263.403,180,270.002,186.599,270.002,195z"/>
</g>















</svg>
